<svg width="118" height="35" fill="none" xmlns="http://www.w3.org/2000/svg"><path fill-rule="evenodd" clip-rule="evenodd" d="M82.652 17.158c-.728 0-1.32.595-1.32 1.32a1.32 1.32 0 1 0 2.639 0c0-.726-.591-1.32-1.319-1.32Zm-45.74 1.255s.659-2.204.759-2.55c.266-.896.664-2.308.664-2.308h.065s.367 1.464.606 2.296c.094.324.723 2.562.723 2.562h-2.817Zm4.008 4.003h2.383l-3.598-10.999a4.316 4.316 0 0 0-1.351-.207c-.546 0-.74.072-1.168.207l-3.816 11h2.282s.306-.964.68-2.16h3.946l.642 2.16Zm77.08 0s-1.128-2.408-1.404-2.952c-.312-.618-.598-1.044-1.236-1.196v-.036c.427-.08.766-.34 1.133-1.126.354-.77.458-.934.665-1.116.203-.184.481-.114.481-.114l.105-1.432a5.265 5.265 0 0 0-.963-.022c-.558.035-.851.194-1.124.473-.214.213-.362.53-.544.903-.194.397-.347.719-.542 1.124-.199.414-.296.6-.831.6h-.347v-2.974h-2.077v7.868h2.077v-3.215l.282-.005c.59 0 .691.148 1.005.77.369.744 1.066 2.45 1.066 2.45H118Zm-8.488 0v-7.868h-2.069v2.975h-2.341v-2.975h-2.065v7.868h2.065v-3.213h2.341v3.213h2.069Zm-56.834-7.94-.008 7.527c.98.413 2.057.6 3.014.6 2.196 0 3.371-1.135 3.371-3.006 0-1.693-1.04-2.74-2.984-2.74-.494 0-.784.065-1.326.195v-2.576h-2.067Zm4.239 5.217c0 .776-.274 1.308-1.267 1.308-.334 0-.472 0-.906-.122V18.61c.539-.105.587-.122.906-.122.95 0 1.267.461 1.267 1.205Zm45.037 1.968c-.548-.83-.69-1.32-.69-2.364v-2.12c0-1.144-.131-1.564-.434-1.984-.42-.589-1.12-.843-2.41-.843-.912 0-1.805.098-2.66.316l.306 1.518c.58-.081 1.189-.151 1.626-.151 1.367 0 1.525.2 1.525 1.225v.384a3.945 3.945 0 0 0-1.044-.14c-2.068 0-3.156 1.008-3.156 2.673 0 1.564 1.163 2.419 2.587 2.419.53 0 1.081-.1 1.518-.276.264-.116.379-.181.72-.406.206.303.62.609.788.664l1.324-.915Zm-2.63-.907a3.064 3.064 0 0 1-1.113.194c-.74 0-1.157-.293-1.157-1.051 0-.79.53-1.057 1.555-1.057.249 0 .494.037.608.078v.566c0 .61.033 1.01.108 1.27Zm-20.186.907c-.546-.83-.687-1.32-.687-2.364v-2.12c0-1.144-.133-1.564-.436-1.984-.419-.589-1.12-.843-2.41-.843-.91 0-1.805.098-2.66.316l.306 1.518c.582-.081 1.188-.151 1.626-.151 1.37 0 1.527.2 1.527 1.225v.384a3.968 3.968 0 0 0-1.045-.14c-2.07 0-3.158 1.008-3.158 2.673 0 1.564 1.163 2.419 2.589 2.419a4.21 4.21 0 0 0 1.519-.276c.262-.116.377-.181.72-.406.206.303.617.609.786.664l1.323-.915Zm-2.628-.907a3.066 3.066 0 0 1-1.112.194c-.74 0-1.16-.293-1.16-1.051 0-.79.53-1.057 1.555-1.057.247 0 .495.037.611.078v.566c0 .61.03 1.01.106 1.27ZM51.04 22.416v-7.582c-1.136-.338-2.01-.484-3.148-.484-1.139 0-1.99.146-3.127.485v3.881c0 1.056-.018 1.373-.133 1.714-.114.299-.267.658-.684.935l.564 1.21c1.66-.468 2.285-1.19 2.285-3.487v-2.856c.549-.08.657-.098 1.095-.098.44 0 .531.018 1.078.098v6.184h2.07Zm15.648 2.578v-2.827c.261.155.784.383 1.665.383 1.75 0 3.041-1.455 3.041-4.115 0-2.865-1.282-4.091-3.389-4.091-.535 0-.884.055-1.317.262v-3.378h-2.06v3.378c-.433-.207-.784-.262-1.318-.262-2.108 0-3.39 1.277-3.39 4.14 0 2.66 1.16 4.066 3.039 4.066.885 0 1.407-.228 1.669-.383v2.827h2.06Zm-4.645-6.51c0-1.58.476-2.414 1.425-2.414.4 0 .666-.003 1.16.234v4.344c-.448.147-.66.167-1.06.167-1.081 0-1.525-.882-1.525-2.33Zm7.229-.049c0 1.447-.576 2.38-1.525 2.38-.398 0-.61-.02-1.06-.167v-4.344c.494-.236.76-.234 1.16-.234.95 0 1.425.785 1.425 2.365Zm24.957.566c0-1.95-1.142-3.293-3.542-3.293-.589 0-1 .056-1.636.207l-.005-2.806a14.167 14.167 0 0 1 1.819-.106c.705 0 1.6.039 2.383.134l.055-1.626c-.891-.2-2.184-.322-3.187-.322-.989 0-2.526.248-3.258.446l-.001 10.371a9.734 9.734 0 0 0 3.398.61c2.616 0 3.974-1.388 3.974-3.615Zm-2.2.157c0 1.05-.582 1.743-1.654 1.743-.423 0-.77 0-1.324-.15v-3.182c.244-.04.749-.119 1.324-.098 1.09.041 1.654.55 1.654 1.687ZM11.192 5.523l-3.095 9.29h6.238l-3.105-9.29h-.038ZM.347 30.261a.35.35 0 0 0-.347.355v3.95a.35.35 0 0 0 .347.356h21.727c.19 0 .344-.158.344-.355v-3.95a.35.35 0 0 0-.344-.356H.347ZM11.21 0c2.378 0 3.125 1.703 3.75 3.408.265.72 6.441 17.633 6.626 18.14.052.14.017.374-.2.458-.22.083-3.43 1.331-3.606 1.398a.348.348 0 0 1-.443-.209c-.066-.175-1.396-3.861-1.546-4.274h-9.15l-1.557 4.274c-.061.17-.254.283-.441.209-.189-.075-3.412-1.324-3.603-1.398a.358.358 0 0 1-.204-.457c.228-.635 6.31-17.276 6.62-18.141C8.059 1.73 8.834 0 11.21 0Z" fill="#97544A"/></svg>