<svg width="66" height="58" fill="none" xmlns="http://www.w3.org/2000/svg"><path d="m11.627 23.133-1.338 4.107h-.586l-1.087-3.268-1.088 3.268h-.585l-1.339-4.107h.586l1.087 3.353 1.171-3.353h.502l1.171 3.353 1.171-3.353h.335ZM56.212 26.737v.503H53.2v-4.107h2.929v.503h-2.343v1.257h2.092v.503h-2.092v1.341h2.426ZM33.877 0v4.107h-.502l-2.426-3.101v3.101h-.586V0h.502l2.426 3.101V0h.586ZM31.201 52.636c-.25-.084-.502-.251-.669-.335l.251-.42c.167.169.335.252.586.336.25.084.502.168.752.168.335 0 .586-.084.753-.168a.461.461 0 0 0 .251-.419c0-.168-.083-.251-.167-.335-.084-.084-.167-.168-.335-.168-.167-.084-.334-.084-.585-.167a3.882 3.882 0 0 1-.753-.252c-.167-.084-.335-.167-.502-.335-.167-.168-.167-.335-.167-.587 0-.251.084-.419.167-.587a.857.857 0 0 1 .502-.419c.251-.083.502-.167.836-.167.252 0 .502 0 .753.084.251.083.419.167.586.251l-.168.503c-.167-.084-.334-.168-.585-.252-.167-.083-.418-.083-.586-.083-.334 0-.585.084-.752.167-.168.084-.251.252-.251.503 0 .168.083.252.167.335.084.084.25.168.335.168.167.084.334.084.585.168.335.084.586.167.753.251.167.084.335.168.502.335.167.168.167.336.167.587 0 .252-.084.42-.167.587-.084.168-.335.335-.502.419-.25.084-.502.168-.837.168a4.067 4.067 0 0 0-.92-.336Z" fill="#97544A"/><path d="M32.121 57.748h-.084c-8.615 0-16.646-3.436-22.668-9.471C3.346 42.158 0 34.112 0 25.479h.836c0 8.382 3.18 16.26 9.118 22.211 5.856 5.951 13.718 9.22 22.083 9.22h.084c14.806 0 27.688-10.477 30.615-25.061l.837.168C60.562 47.02 47.345 57.748 32.12 57.748ZM65.999 24.81a2.52 2.52 0 0 1-2.51 2.514c-1.422 0-2.51-1.174-2.51-2.515a2.52 2.52 0 0 1 2.51-2.514A2.52 2.52 0 0 1 66 24.809Z" fill="#97544A"/><path opacity=".5" d="M27.772 35.035c-5.27-2.431-7.529-8.717-5.02-13.914 2.427-5.28 8.7-7.543 13.886-5.029 5.27 2.43 7.529 8.717 5.02 13.914-2.427 5.196-8.617 7.46-13.886 5.029Z" fill="#FCE7C7"/><path d="M51.36 25.312H12.965v.42H51.36v-.42Z" fill="#97544A"/><path d="M32.455 25.564h-.418v20.283h.418V25.564ZM32.623 5.196h-.837v20.2h.837v-20.2Z" fill="#97544A"/></svg>