<svg width="1622" height="484" fill="none" xmlns="http://www.w3.org/2000/svg"><path d="M1037 465h585M576 465h217M2 465h443M536 465h29M458.5 465H474M789 465v18M1041 465v18" stroke="#FCE7C7" stroke-linecap="round" stroke-linejoin="round"/><path stroke="#FCE7C7" stroke-width="2" stroke-linecap="round" stroke-linejoin="round" d="M1176 289h26v152h-26zM1097 146h38v38h-38zM688 383h38v38h-38zM793 1h244v482H793z"/><path stroke="#FCE7C7" stroke-width="2" stroke-linecap="round" stroke-linejoin="round" d="M813 21h205v462H813z"/><path fill="#476D5C" stroke="#FCE7C7" stroke-width="2" stroke-linecap="round" stroke-linejoin="round" d="M1015 84h6v28h-6z"/><path stroke="#FCE7C7" stroke-linecap="round" stroke-linejoin="round" d="M846.5 73.5h136v5h-136zM846.5 190.5h136v5h-136zM846.5 310.5h136v5h-136zM846.5 427.5h136v5h-136z"/><path fill="#476D5C" stroke="#FCE7C7" stroke-width="2" stroke-linecap="round" stroke-linejoin="round" d="M1015 349h6v28h-6zM1015 137h6v28h-6z"/><path stroke="#FCE7C7" stroke-width="2" stroke-linecap="round" stroke-linejoin="round" d="M833 251h25v4h-25z"/><path fill="#476D5C" stroke="#FCE7C7" stroke-width="2" stroke-linecap="round" stroke-linejoin="round" d="M1015 402h6v28h-6z"/><path stroke="#FCE7C7" stroke-width="2" stroke-linecap="round" stroke-linejoin="round" d="M634 383h38v38h-38zM1107 156h18v18h-18zM698 393h18v18h-18z"/><path stroke="#FCE7C7" stroke-width="2" stroke-linecap="round" stroke-linejoin="round" d="M644 393h18v18h-18zM704 401.5v2M650 401.5v2M710 401.5v2M827 276h4M656 401.5v2M1206 289h26v152h-26zM1236 289h26v152h-26zM1266 289h26v152h-26zM1296 289h26v152h-26zM1326 289h26v152h-26zM1356 289h26v152h-26zM1386 289h26v152h-26zM1416 289h26v152h-26zM1442 320h25v8h-25zM1171 320h5v8h-5zM1442 402h25v8h-25zM1171 402h5v8h-5z"/><circle cx="829" cy="253" r="6" fill="#476D5C" stroke="#FCE7C7" stroke-width="2" stroke-linecap="round" stroke-linejoin="round"/><rect x="823" y="267" width="12" height="18" rx="6" stroke="#FCE7C7" stroke-width="2" stroke-linecap="round" stroke-linejoin="round"/><mask id="a" fill="#fff"><path d="M432.506 479.307c.426-.566.739-.726 1.402-1.032 3.063-1.408 5.517-2.654 6.816-5.33 4.475-9.232 7.246-14.809 8.832-22.551.278-1.365-.02-2.806-1.284-4.111-.39-.327-.806-.68-1.248-1.06-4.692-4.046-8.546-12.244-8.46-17.861.175-11.718 6.059-18.435-.289-27.26-.389-.47-.782-.892-1.157-1.285-2.592-2.724-4.071-4.995-2.881-7.238.14-.262-1.559-2.412-.599-4.318.285-.566.73-1.154 1.028-1.713.138-.262.095-.919.361-1.358.427-.698 1.17-1.222 1.734-1.823l3.248-3.48c1.272-1.356 2.466-2.783 3.952-3.894 1.751-1.305 3.214-1.808 3.526-2.005 1.799-1.134 3.817-5.651 5.294-7.18.564-.585 1.438-1.133 2.03-.576.279.318.505.678.671 1.067.63 1.871.788 2.376.996 4.339.037.35.374 2.088.563 2.387.181.245.411.451.676.604l4.486 3.02c.263.175 1.289.854 1.54 1.048.986.771 1.508.617 2.035.435 1.971-.674 2.722-1.25 4.613-2 .972-.386 2.603-.926 3.626-.969 1.264-.056 1.147 1.832.876 2.76-1.102 3.823-2.602 6.126-3.884 8.788 0 .017 0 .031-.014.051-2.489 7.611-1.958 11.267-1.401 13.221 1.138 3.943 4.815 4.867 9.184 5.365 6.098.699 13.355-.185 20.36 1.82 11.947 3.419 17.007 8.355 21.707 14.478 3.29 4.283 8.866 11.934 12.942 26.637 1.776 6.408 3.29 12.076 2.358 18.01.35 4.226 5.917 5.241 13.083 5.487 5.956.204 13.632-1.2 15.929-7.445 1.401-3.791.8-6.638-.125-10.677-1.648-7.212-4.999-11.433-7.707-17.236-3.092-6.615-2.601-14.09-.256-20.038 2.743-6.955 10.262-9.322 17.272-8.767 7.671.608 10.619 6.259 9.389 9.608-.771 2.096-3.459 3.493-6.528 2.868-3.945-.793-8.361-1.827-10.637 1.841-2.275 3.669-.581 9.185 1.086 13.342 2.505 6.24 5.996 12.054 7.457 18.692 1.801 8.192 1.577 14.165-3.414 20.296-3.58 4.406-9.125 7.489-14.364 8.266-8.408 1.249-18.801-.402-28.691-2.528-2.829 1.976-6.131 2.998-6.131 2.998h-49.854c-.422 0-3.726-8.402 13.838-7.415 1.318.073-18.422-2.689-11.454-15.346 1.725-3.134-2.199-4.977-7.105-6.289-1.78-.11-2.89 1.448-3.544 2.395-4.763 6.898-8.172 13.776-14.141 20.438-1.703 1.883-3.59 3.857-6.046 5.005-3.168 1.474-7.066 1.222-9.974 1.048-.906-.056-1.878-.418-2.011-.861-.133-.444-.539-1.573.291-2.67"/></mask><path d="M431.707 478.706a1 1 0 0 0 1.598 1.202l-1.598-1.202Zm2.201-.431-.418-.909-.002.001.42.908Zm6.816-5.33.899.437v-.001l-.899-.436Zm8.832-22.551.979.2-.979-.2Zm-1.284-4.111.718-.696a1.016 1.016 0 0 0-.076-.07l-.642.766Zm-1.248-1.06-.653.757.001.001.652-.758Zm-8.46-17.861 1 .015-1-.015Zm-.289-27.26.811-.584a1.067 1.067 0 0 0-.041-.053l-.77.637Zm-1.157-1.285-.724.689.001.001.723-.69Zm-2.881-7.238-.882-.471-.002.003.884.468Zm-.599-4.318-.893-.45.893.45Zm1.028-1.713.883.47.001-.003-.884-.467Zm.361-1.358-.853-.522-.002.003.855.519Zm1.734-1.823.729.684.002-.002-.731-.682Zm3.248-3.48-.729-.684-.002.002.731.682Zm3.952-3.894-.598-.802-.001.001.599.801Zm3.526-2.005-.533-.846-.002.001.535.845Zm5.294-7.18.719.695.001-.001-.72-.694Zm2.03-.576.752-.66a1.075 1.075 0 0 0-.067-.068l-.685.728Zm.671 1.067.947-.319a1.053 1.053 0 0 0-.027-.072l-.92.391Zm.996 4.339.995-.104v-.001l-.995.105Zm.563 2.387-.845.535c.013.02.026.04.041.059l.804-.594Zm.676.604.558-.83a.786.786 0 0 0-.057-.035l-.501.865Zm4.486 3.02-.558.83.004.003.554-.833Zm1.54 1.048.615-.788-.003-.002-.612.79Zm2.035.435-.323-.946-.002.001.325.945Zm4.613-2 .368.93h.001l-.369-.93Zm3.626-.969.042.999h.002l-.044-.999Zm.876 2.76-.96-.281-.001.004.961.277Zm-3.884 8.788-.901-.434a1.003 1.003 0 0 0-.099.434h1Zm-.014.051-.808-.59a1.01 1.01 0 0 0-.143.279l.951.311Zm-1.401 13.221-.962.275.001.003.961-.278Zm9.184 5.365.114-.994h-.001l-.113.994Zm20.36 1.82-.275.962.275-.962Zm21.707 14.478-.793.609.793-.609Zm12.942 26.637.964-.267-.964.267Zm2.358 18.01-.988-.155a1.055 1.055 0 0 0-.009.238l.997-.083Zm13.083 5.487-.034 1 .034-1Zm15.929-7.445-.938-.347-.001.002.939.345Zm-.125-10.677-.974.223v.001l.974-.224Zm-7.707-17.236.906-.422v-.001l-.906.423Zm-.256-20.038-.93-.366.93.366Zm17.272-8.767.079-.997-.079.997Zm9.389 9.608.939.345v-.001l-.939-.344Zm-6.528 2.868.199-.98h-.002l-.197.98Zm-9.551 15.183-.928.373.928-.373Zm7.457 18.692.977-.215-.977.215Zm-3.414 20.296-.775-.631h-.001l.776.631Zm-14.364 8.266-.147-.989.147.989Zm-28.691-2.528.21-.977a.998.998 0 0 0-.783.158l.573.819ZM522.508 483v1c.1 0 .2-.015.295-.045l-.295-.955Zm-36.016-7.415-.056.998h.001l.055-.998Zm-11.454-15.346-.876-.483.876.483Zm-7.105-6.289.258-.966a1.002 1.002 0 0 0-.196-.032l-.062.998Zm-3.544 2.395.823.568-.823-.568Zm-14.141 20.438.741.671.003-.004-.744-.667Zm-6.046 5.005.422.906h.002l-.424-.906Zm-9.974 1.048-.061.998h.001l.06-.998Zm-.923-2.927a.999.999 0 1 0-1.594-1.207l1.594 1.207Zm0-.001c.164-.218.276-.318.384-.394.131-.091.296-.174.638-.331l-.839-1.816c-.32.148-.643.298-.941.506-.32.222-.578.485-.84.833l1.598 1.202Zm1.02-.725c3.027-1.391 5.823-2.76 7.298-5.801l-1.799-.873c-1.121 2.311-3.234 3.432-6.334 4.857l.835 1.817Zm7.298-5.802c4.465-9.208 7.297-14.9 8.912-22.787l-1.959-.401c-1.556 7.597-4.265 13.061-8.752 22.316l1.799.872Zm8.912-22.787c.343-1.678-.044-3.458-1.545-5.007l-1.436 1.392c1.028 1.061 1.236 2.164 1.022 3.215l1.959.4Zm-1.621-5.077c-.386-.324-.799-.675-1.238-1.052l-1.304 1.516c.444.382.863.738 1.257 1.068l1.285-1.532Zm-1.237-1.051c-2.212-1.908-4.273-4.842-5.771-8.011-1.5-3.176-2.382-6.474-2.342-9.078l-2-.031c-.046 3.014.956 6.624 2.534 9.963 1.581 3.345 3.793 6.533 6.273 8.671l1.306-1.514Zm-8.113-17.089c.086-5.769 1.557-10.13 2.288-14.567.726-4.407.615-8.591-2.766-13.292l-1.623 1.168c2.967 4.125 3.089 7.711 2.416 11.799-.668 4.056-2.226 8.913-2.315 14.862l2 .03Zm-.519-27.912a25.377 25.377 0 0 0-1.203-1.339l-1.447 1.381c.369.387.742.79 1.109 1.233l1.541-1.275Zm-1.202-1.338c-1.286-1.35-2.203-2.498-2.675-3.526-.447-.976-.464-1.768-.048-2.553l-1.767-.937c-.773 1.458-.645 2.923-.003 4.324.619 1.349 1.737 2.698 3.044 4.071l1.449-1.379Zm-2.724-6.076a1.11 1.11 0 0 0 .113-.688 1.508 1.508 0 0 0-.078-.301 4.756 4.756 0 0 0-.18-.421c-.13-.281-.277-.588-.402-.939-.255-.719-.336-1.405-.041-1.991l-1.786-.9c-.665 1.32-.376 2.663-.057 3.561.162.457.354.856.472 1.111.067.143.097.213.11.249.007.019-.007-.014-.017-.077-.004-.032-.044-.275.102-.547l1.764.943Zm-.588-4.339c.116-.231.271-.478.459-.771.176-.276.387-.601.559-.923l-1.766-.941c-.125.237-.286.486-.478.786a10.69 10.69 0 0 0-.56.948l1.786.901Zm1.019-1.697c.111-.21.155-.429.177-.546.022-.121.046-.291.059-.378.04-.251.075-.347.096-.382l-1.71-1.038c-.245.404-.321.855-.361 1.109-.026.164-.034.235-.051.324-.017.094-.019.055.022-.023l1.768.934Zm.33-1.303c.142-.233.356-.465.651-.744.26-.247.652-.59.959-.917l-1.458-1.369c-.257.274-.518.494-.877.834-.325.307-.696.687-.981 1.152l1.706 1.044Zm1.612-1.663 3.248-3.48-1.462-1.364-3.248 3.479 1.462 1.365Zm3.246-3.478c1.325-1.412 2.428-2.735 3.822-3.777l-1.198-1.602c-1.578 1.18-2.864 2.712-4.082 4.011l1.458 1.368Zm3.82-3.776a14.407 14.407 0 0 1 2.155-1.326c.294-.148.546-.264.754-.359.168-.077.403-.181.555-.277l-1.07-1.69c.014-.009.003-.001-.067.033l-.25.116c-.209.095-.491.224-.82.39-.662.332-1.518.814-2.452 1.509l1.195 1.604Zm3.462-1.961c.604-.381 1.155-.992 1.639-1.623.496-.647.984-1.399 1.444-2.135.471-.754.899-1.468 1.32-2.117.422-.652.781-1.149 1.077-1.456l-1.439-1.389c-.442.457-.889 1.098-1.317 1.758-.429.663-.895 1.436-1.337 2.144-.455.727-.901 1.411-1.335 1.978-.447.583-.823.962-1.118 1.148l1.066 1.692Zm5.481-7.332c.229-.237.47-.41.645-.478.081-.031.101-.022.075-.025a.188.188 0 0 1-.096-.039l1.371-1.456c-.673-.634-1.493-.569-2.072-.345-.551.214-1.029.608-1.363.955l1.44 1.388Zm.558-.611c.209.239.379.508.502.8l1.841-.783a4.982 4.982 0 0 0-.839-1.336l-1.504 1.319Zm.475.728c.616 1.827.752 2.257.95 4.125l1.989-.211c-.219-2.059-.398-2.638-1.044-4.553l-1.895.639Zm.95 4.124c.025.234.128.802.241 1.32.059.268.124.544.19.781.033.117.069.235.107.342.032.089.088.237.174.374l1.69-1.071c.039.062.043.09.02.026a3.072 3.072 0 0 1-.065-.209c-.051-.185-.107-.42-.161-.668a15.606 15.606 0 0 1-.207-1.104l-1.989.209Zm.753 2.876c.263.356.596.654.979.875l1.002-1.73a1.243 1.243 0 0 1-.373-.334l-1.608 1.189Zm.921.839 4.487 3.021 1.117-1.659-4.487-3.021-1.117 1.659Zm4.491 3.024c.291.193 1.269.841 1.482 1.006l1.224-1.581c-.288-.223-1.363-.934-1.598-1.091l-1.108 1.666Zm1.478 1.003c.582.455 1.13.719 1.696.781.563.062 1.013-.096 1.281-.188l-.651-1.891c-.26.089-.334.099-.411.091-.073-.008-.279-.053-.684-.369l-1.231 1.576Zm2.975.593a20.869 20.869 0 0 0 2.446-1.016c.682-.328 1.306-.641 2.211-1l-.737-1.859c-.985.39-1.682.74-2.34 1.056-.654.314-1.295.608-2.227.927l.647 1.892Zm4.658-2.016c.46-.183 1.08-.404 1.701-.582.637-.183 1.208-.302 1.598-.318l-.085-1.998c-.633.027-1.388.199-2.065.394-.694.199-1.376.442-1.887.645l.738 1.859Zm3.301-.9c.032-.002-.036-.004-.084-.059-.012-.014.035.037.067.232.064.391-.003.938-.111 1.307l1.919.562c.164-.559.291-1.42.166-2.191-.063-.387-.207-.855-.544-1.236-.374-.423-.902-.64-1.502-.613l.089 1.998Zm-.129 1.484c-1.071 3.716-2.489 5.86-3.824 8.631l1.802.868c1.23-2.554 2.81-5.014 3.943-8.945l-1.921-.554Zm-3.923 9.065c0 .026-.004-.073.021-.187a.927.927 0 0 1 .157-.352l1.616 1.179a1.063 1.063 0 0 0 .204-.574l.002-.047v-.019h-2Zm.035-.26c-2.536 7.755-2.036 11.619-1.412 13.807l1.923-.549c-.49-1.722-1.052-5.17 1.39-12.636l-1.901-.622Zm-1.411 13.81c.657 2.276 2.074 3.701 3.902 4.595 1.774.867 3.934 1.235 6.13 1.486l.226-1.988c-2.174-.247-4.036-.59-5.477-1.295-1.388-.678-2.379-1.687-2.86-3.353l-1.921.555Zm10.031 6.08c3.101.356 6.536.312 9.92.427 3.428.116 6.896.393 10.279 1.362l.55-1.923c-3.622-1.037-7.286-1.321-10.761-1.438-3.521-.12-6.764-.071-9.76-.415l-.228 1.987Zm20.199 1.789c5.884 1.683 10.025 3.727 13.259 6.073 3.235 2.346 5.608 5.026 7.93 8.052l1.587-1.218c-2.378-3.097-4.886-5.946-8.343-8.453-3.457-2.508-7.82-4.642-13.883-6.377l-.55 1.923Zm21.189 14.125c3.241 4.219 8.74 11.755 12.771 26.296l1.928-.535c-4.122-14.866-9.774-22.632-13.113-26.979l-1.586 1.218Zm12.771 26.296c1.786 6.44 3.227 11.901 2.334 17.587l1.976.31c.971-6.181-.615-12.058-2.382-18.432l-1.928.535Zm2.325 17.825c.222 2.678 2.144 4.222 4.653 5.097 2.486.867 5.803 1.183 9.393 1.307l.069-1.999c-3.576-.123-6.627-.438-8.803-1.196-2.153-.751-3.19-1.826-3.319-3.374l-1.993.165Zm14.046 6.404c3.054.104 6.606-.199 9.722-1.368 3.13-1.173 5.901-3.255 7.179-6.732l-1.877-.69c-1.018 2.768-3.233 4.511-6.004 5.55-2.785 1.044-6.05 1.34-8.951 1.241l-.069 1.999Zm16.901-8.098c1.514-4.096.837-7.21-.088-11.247l-1.949.447c.925 4.04 1.449 6.621.161 10.106l1.876.694Zm-.088-11.246c-.849-3.716-2.137-6.656-3.542-9.382-1.43-2.774-2.884-5.161-4.234-8.054l-1.812.845c1.358 2.91 2.933 5.535 4.268 8.125 1.36 2.638 2.571 5.414 3.371 8.911l1.949-.445Zm-7.776-17.437c-2.953-6.317-2.498-13.5-.232-19.248l-1.86-.733c-2.425 6.148-2.951 13.914.28 20.828l1.812-.847Zm-.232-19.248c2.507-6.357 9.446-8.677 16.263-8.137l.158-1.994c-7.204-.571-15.302 1.843-18.281 9.398l1.86.733Zm16.263-8.137c7.262.576 9.451 5.757 8.53 8.266l1.877.689c1.538-4.188-2.17-10.308-10.249-10.949l-.158 1.994Zm8.53 8.266c-.557 1.513-2.671 2.787-5.391 2.233l-.399 1.96c3.418.696 6.682-.825 7.667-3.503l-1.877-.69Zm-5.393 2.233c-1.923-.387-4.158-.88-6.195-.771-2.109.113-4.132.878-5.489 3.065l1.7 1.054c.919-1.481 2.242-2.033 3.896-2.122 1.726-.092 3.671.328 5.694.734l.394-1.96Zm-11.684 2.294c-1.316 2.123-1.438 4.698-1.075 7.161.365 2.475 1.24 4.98 2.083 7.081l1.856-.745c-.825-2.057-1.63-4.388-1.96-6.628-.332-2.251-.163-4.269.796-5.815l-1.7-1.054Zm1.008 14.242c1.261 3.14 2.791 6.223 4.135 9.232 1.36 3.042 2.565 6.082 3.274 9.302l1.953-.43c-.752-3.419-2.023-6.605-3.401-9.688-1.393-3.118-2.86-6.061-4.105-9.161l-1.856.745Zm7.409 18.533c.89 4.049 1.257 7.457.825 10.57-.427 3.087-1.649 5.945-4.038 8.881l1.551 1.262c2.601-3.195 3.987-6.389 4.469-9.869.478-3.454.057-7.129-.854-11.273l-1.953.429Zm-3.214 19.451c-3.423 4.212-8.743 7.167-13.735 7.908l.294 1.978c5.487-.814 11.255-4.025 14.993-8.624l-1.552-1.262Zm-13.735 7.908c-8.21 1.22-18.443-.39-28.334-2.516l-.42 1.955c9.889 2.126 20.442 3.818 29.048 2.539l-.294-1.978Zm-29.117-2.358c-1.338.934-2.803 1.652-3.946 2.139a25.646 25.646 0 0 1-1.78.681 5.114 5.114 0 0 1-.1.033l-.023.007-.005.002.296.955.296.955h.001l.003-.001.01-.003.033-.011.119-.039a27.456 27.456 0 0 0 1.934-.739c1.215-.518 2.816-1.298 4.307-2.34l-1.145-1.639ZM522.508 482h-49.854v2h49.854v-2Zm-49.854 0c.364 0 .585.2.612.224.064.056.095.102.099.107.01.015-.006-.007-.037-.08a2.57 2.57 0 0 1-.167-.67 3.073 3.073 0 0 1 .499-2.104c.998-1.498 4.048-3.384 12.776-2.894l.112-1.997c-8.836-.496-12.916 1.325-14.552 3.782a5.078 5.078 0 0 0-.821 3.456c.059.475.177.89.311 1.207.065.154.146.312.243.45.046.066.118.159.218.247.064.055.316.272.707.272v-2Zm13.783-5.417c.026.002.075.004.127.003.021-.001.084-.003.162-.016.035-.007.122-.023.225-.068a1.004 1.004 0 0 0 .395-1.533c-.109-.14-.228-.215-.264-.238a1.012 1.012 0 0 0-.186-.091 1.37 1.37 0 0 0-.128-.041c-.095-.026-.268-.065-.448-.107a36.042 36.042 0 0 1-1.766-.455c-1.518-.436-3.557-1.143-5.406-2.216-1.862-1.081-3.422-2.469-4.152-4.219-.708-1.696-.712-3.92.918-6.881l-1.752-.965c-1.854 3.369-2.004 6.237-1.012 8.616.97 2.325 2.956 3.996 4.994 5.179 2.05 1.19 4.264 1.951 5.859 2.408.802.23 1.456.386 1.863.48.219.052.328.076.374.089.014.004-.011-.002-.049-.017a.882.882 0 0 1-.167-.082c-.034-.022-.152-.096-.259-.235a.998.998 0 0 1-.127-1.008c.156-.362.458-.493.52-.52a.955.955 0 0 1 .218-.065c.072-.013.127-.014.138-.015h.034l-.111 1.997Zm-10.523-15.862c.535-.973.686-1.96.385-2.906-.29-.91-.952-1.633-1.733-2.209-1.544-1.138-3.915-1.964-6.375-2.622l-.516 1.932c2.446.654 4.49 1.405 5.704 2.3.597.44.9.849 1.014 1.206.102.322.096.74-.231 1.334l1.752.965Zm-7.919-7.769c-1.226-.076-2.193.434-2.904 1.037-.694.59-1.201 1.319-1.525 1.788l1.646 1.136c.33-.477.705-1.001 1.174-1.4.453-.384.931-.599 1.485-.565l.124-1.996Zm-4.429 2.825c-2.392 3.465-4.469 6.962-6.636 10.335-2.182 3.395-4.493 6.73-7.427 10.004l1.489 1.334c3.037-3.388 5.414-6.823 7.62-10.257 2.221-3.456 4.229-6.846 6.6-10.28l-1.646-1.136Zm-14.06 20.335c-1.707 1.888-3.474 3.717-5.727 4.77l.847 1.812c2.659-1.243 4.665-3.362 6.363-5.24l-1.483-1.342Zm-5.725 4.769c-2.898 1.348-6.526 1.135-9.493.957l-.12 1.996c2.849.171 7.017.461 10.456-1.14l-.843-1.813Zm-9.491.957a3.227 3.227 0 0 1-.978-.213 1.008 1.008 0 0 1-.235-.124c-.041-.032.048.021.098.186l-1.916.575c.117.388.378.652.584.814.219.171.469.301.711.4a5.243 5.243 0 0 0 1.613.358l.123-1.996Zm-1.115-.151c-.149-.496-.359-1.131.13-1.778l-1.594-1.207c-1.172 1.547-.569 3.169-.452 3.56l1.916-.575Z" fill="#FCE7C7" mask="url(#a)"/><mask id="b" fill="#fff"><path d="M498.085 475.896c-8.142-5.906-11.09-10.034-11.81-11.18-2.741-4.353-2.666-9.699.2-14.296 2.58-4.135 7.373-7.861 14.653-11.379a.17.17 0 0 1 .067-.017.158.158 0 0 1 .068.009.166.166 0 0 1 .059.034.17.17 0 0 1 .059.121.19.19 0 0 1-.009.068.172.172 0 0 1-.09.101c-7.217 3.494-11.962 7.173-14.508 11.25-2.802 4.48-2.872 9.686-.203 13.924.727 1.154 3.759 5.394 12.262 11.473a.173.173 0 0 1 .067.21.179.179 0 0 1-.077.088.173.173 0 0 1-.116.02 44.212 44.212 0 0 0-7.007-.26c-3.312.162-7.532.883-8.828 3.392-.31.603-.381 1.169-.205 1.684.304.898 1.256 1.357 1.264 1.362a.175.175 0 1 1-.15.318c-.044-.021-1.093-.524-1.447-1.572-.207-.609-.132-1.268.226-1.96 2.3-4.459 12.724-3.691 15.524-3.397"/></mask><path d="M497.498 476.705a1 1 0 0 0 1.174-1.619l-1.174 1.619Zm-11.223-11.989.847-.532-.001-.001-.846.533Zm.2-14.296-.848-.53-.001.001.849.529Zm14.653-11.379.435.9h.001l-.436-.9Zm.154.316.436.9-.436-.9Zm-14.508 11.25.848.53.001-.001-.849-.529Zm-.203 13.924.846-.533-.846.533Zm12.262 11.473-.581.813.031.022.55-.835Zm-.126.318.168-.986a.816.816 0 0 0-.052-.007l-.116.993Zm-7.007-.26-.042-1-.007.001.049.999Zm-8.828 3.392-.889-.459-.001.001.89.458Zm-.205 1.684.947-.322h-.001l-.946.322Zm1.264 1.362-.513.859c.028.016.057.032.087.046l.426-.905Zm-.15.318-.432.902.006.003.426-.905Zm-1.447-1.572.947-.32v-.001l-.947.321Zm.226-1.96.888.459h.001l-.889-.459Zm15.419-2.403a1 1 0 1 0 .209-1.989l-.209 1.989Zm.693-1.797c-8.055-5.843-10.909-9.881-11.55-10.902l-1.694 1.064c.799 1.271 3.842 5.488 12.07 11.457l1.174-1.619Zm-11.551-10.903c-2.523-4.007-2.474-8.94.203-13.234l-1.698-1.058c-3.054 4.901-3.156 10.659-.197 15.358l1.692-1.066Zm.202-13.234c2.435-3.901 7.03-7.524 14.24-11.008l-.87-1.8c-7.351 3.552-12.34 7.381-15.066 11.749l1.696 1.059Zm14.241-11.008a.833.833 0 0 1-.31.081l-.119-1.997a1.178 1.178 0 0 0-.443.116l.872 1.8Zm-.31.081a.834.834 0 0 1-.317-.044l.652-1.891c-.146-.05-.3-.071-.454-.062l.119 1.997Zm-.317-.044a.829.829 0 0 1-.277-.161l1.325-1.499a1.205 1.205 0 0 0-.396-.231l-.652 1.891Zm-.277-.161a.819.819 0 0 1-.195-.257l1.797-.876a1.182 1.182 0 0 0-.277-.366l-1.325 1.499Zm-.195-.257a.803.803 0 0 1-.082-.312l1.996-.12a1.166 1.166 0 0 0-.117-.444l-1.797.876Zm-.082-.312a.804.804 0 0 1 .044-.319l1.89.655c.05-.146.072-.301.062-.456l-1.996.12Zm.044-.319a.812.812 0 0 1 .163-.278l1.494 1.329c.103-.115.182-.25.233-.396l-1.89-.655Zm.163-.278a.823.823 0 0 1 .256-.194l.872 1.8c.139-.067.264-.161.366-.277l-1.494-1.329Zm.256-.194c-7.285 3.527-12.228 7.309-14.92 11.62l1.697 1.059c2.399-3.843 6.946-7.418 14.095-10.879l-.872-1.8Zm-14.919 11.619c-2.993 4.785-3.089 10.404-.202 14.988l1.692-1.066c-2.452-3.892-2.407-8.684.205-12.861l-1.695-1.061Zm-.202 14.988c.807 1.282 3.937 5.612 12.527 11.753l1.163-1.627c-8.416-6.016-11.351-10.165-11.998-11.192l-1.692 1.066Zm12.558 11.775a.822.822 0 0 1-.333-.441l1.907-.602a1.17 1.17 0 0 0-.474-.627l-1.1 1.67Zm-.333-.441a.827.827 0 0 1 .02-.553l1.859.738c.1-.251.11-.529.028-.787l-1.907.602Zm.02-.553a.827.827 0 0 1 .363-.415l.979 1.744c.235-.132.417-.34.517-.591l-1.859-.738Zm.363-.415a.82.82 0 0 1 .542-.094l-.336 1.972c.265.045.538-.002.773-.134l-.979-1.744Zm.49-.101a45.37 45.37 0 0 0-7.165-.267l.084 1.999a43.29 43.29 0 0 1 6.849.254l.232-1.986Zm-7.172-.266c-1.695.083-3.674.31-5.422.861-1.717.542-3.413 1.46-4.246 3.071l1.777.918c.464-.897 1.525-1.594 3.071-2.081 1.514-.478 3.301-.692 4.918-.772l-.098-1.997Zm-9.669 3.933c-.4.779-.546 1.63-.262 2.464l1.893-.644c-.066-.197-.072-.478.148-.905l-1.779-.915Zm-.262 2.463c.447 1.319 1.8 1.961 1.698 1.9l1.027-1.717-.035-.019-.012-.007a.156.156 0 0 0-.011-.006l-.006-.003-.004-.002-.015-.008a2.293 2.293 0 0 1-.317-.216c-.201-.165-.362-.36-.431-.565l-1.894.643Zm1.785 1.946a.822.822 0 0 1-.424-.467l1.882-.676a1.176 1.176 0 0 0-.605-.666l-.853 1.809Zm-.424-.467a.825.825 0 0 1 .031-.632l1.807.857c.134-.283.15-.607.044-.901l-1.882.676Zm.031-.632a.823.823 0 0 1 .467-.423l.673 1.884c.293-.105.533-.322.667-.604l-1.807-.857Zm.467-.423a.824.824 0 0 1 .628.031l-.852 1.809c.281.133.604.148.897.044l-.673-1.884Zm.634.033h-.001l-.003-.002-.02-.01a2.364 2.364 0 0 1-.376-.256c-.229-.19-.434-.434-.532-.722l-1.895.64c.257.76.753 1.292 1.148 1.62.4.333.754.505.815.534l.864-1.804Zm-.932-.991c-.102-.301-.093-.676.167-1.18l-1.777-.918c-.454.88-.596 1.822-.284 2.74l1.894-.642Zm.168-1.18c.424-.823 1.266-1.485 2.492-1.987 1.221-.5 2.722-.799 4.294-.958 3.142-.318 6.368-.061 7.744.083l.209-1.989c-1.423-.149-4.809-.423-8.154-.084-1.671.169-3.383.496-4.851 1.097-1.462.599-2.786 1.514-3.512 2.921l1.778.917Z" fill="#FCE7C7" mask="url(#b)"/><path d="M444.294 385.069a.265.265 0 0 1-.065-.18l-.006-.007a.307.307 0 0 1 .085-.196c.246-.251.383-.11 1.141.203.551.111 1.154.316 1.924.57.55.182 1.114.317 1.687.403.416.048.835.055 1.252.021a8.322 8.322 0 0 0 1.251-.271c.203-.059.59-.197.941-.33l.671-.25a.18.18 0 0 1 .111.041.178.178 0 0 1 .06.102.172.172 0 0 1-.108.194c-.295.128-1.19.469-1.577.58a8.677 8.677 0 0 1-1.296.282 3.775 3.775 0 0 1-.487.026c-.287 0-.575-.015-.86-.046a10.248 10.248 0 0 1-1.752-.419 15.995 15.995 0 0 0-2.803-.634.27.27 0 0 1-.169-.089Z" fill="#FCE7C7"/><mask id="c" fill="#fff"><path d="M434.405 391.407a.5.5 0 0 0 .368-.083.47.47 0 0 0 .077-.417v-.021a4.792 4.792 0 0 1-.226-2.115c.074-.647.506-1.714.949-2.366-.026-.014-.052-.026-.077-.043-.466-.301-.7-.8-.714-1.483v-.009a.172.172 0 0 1 .017-.131.175.175 0 0 1 .202-.089c.135.033.136.164.138.232 0 .208.012.84.555 1.193 1.065.688 2.278-.796 2.32-.842a.175.175 0 0 1 .24-.064.175.175 0 0 1 .064.239c-.047.084-.746.933-1.62 1.148-.13.033-.263.05-.398.05-.131 0-.262-.018-.388-.054-.423.594-.862 1.654-.931 2.271a4.317 4.317 0 0 0 .754 3.031c.282.391.661.704 1.1.908a3.708 3.708 0 0 0 2.393.208c.811-.2 1.55-.624 2.131-1.223.334-.309.576-.704.701-1.14a.184.184 0 0 1 .079-.113.182.182 0 0 1 .248.056c.025.04.034.089.023.135-.135.5-.406.952-.783 1.308a4.802 4.802 0 0 1-2.317 1.305 4.319 4.319 0 0 1-.993.116 3.847 3.847 0 0 1-1.633-.35 3.176 3.176 0 0 1-1.237-1.023 4.74 4.74 0 0 1-.35-.575.585.585 0 0 1-.086.107.749.749 0 0 1-.525.186.787.787 0 0 1-.154-.012.178.178 0 0 1-.144-.206.179.179 0 0 1 .207-.143"/></mask><path d="M434.571 390.42a1 1 0 0 0-.332 1.973l.332-1.973Zm.202.904.57.822a.999.999 0 0 0 .227-.218l-.797-.604Zm.077-.417.96-.28a1 1 0 0 0-1.952.404l.992-.124Zm0-.021h1c0-.11-.018-.22-.054-.324l-.946.324Zm-.226-2.115.993.116.001-.003-.994-.113Zm.949-2.366.827.563a1.001 1.001 0 0 0-.357-1.446l-.47.883Zm-.077-.043.581-.815-.039-.026-.542.841Zm-.714-1.483h-1v.02l1-.02Zm0-.009h1a.976.976 0 0 0-.033-.253l-.967.253Zm.017-.131.867.498a.541.541 0 0 0 .023-.041l-.89-.457Zm.202-.089-.259.966.02.005.239-.971Zm.138.232h1v-.026l-1 .026Zm.555 1.193-.545.839.003.001.542-.84Zm2.32-.842.733.68c.051-.055.096-.116.133-.18l-.866-.5Zm.304.175-.866-.499-.005.008.871.491Zm-1.62 1.148-.239-.972-.007.002.246.97Zm-.398.05.001 1h.005l-.006-1Zm-.388-.054.273-.962a1.001 1.001 0 0 0-1.089.383l.816.579Zm-.931 2.271.992.126.002-.016-.994-.11Zm.754 3.031-.818.576.007.009.811-.585Zm1.1.908-.422.907.017.008.405-.915Zm2.393.208-.24-.971h-.001l.241.971Zm2.131-1.223-.679-.733a.663.663 0 0 0-.038.037l.717.696Zm.701-1.14.962.274.014-.054-.976-.22Zm.35.078.965.262a.65.65 0 0 0 .011-.042l-.976-.22Zm-.783 1.308-.687-.726-.025.025.712.701Zm-2.317 1.305.23.974.001-.001-.231-.973Zm-.993.116v-1h-.009l.009 1Zm-1.633-.35-.422.907.005.002.417-.909Zm-1.237-1.023-.813.581.001.002.812-.583Zm-.35-.575.89-.457a1.003 1.003 0 0 0-1.736-.076l.846.533Zm-.086.107.663.748a.63.63 0 0 0 .038-.035l-.701-.713Zm-.525.186.04-.999-.048-.001.008 1Zm-.154-.012-.177.985.012.002.165-.987Zm-.114.635a1 1 0 0 0 .353-1.968l-.353 1.968Zm.021.011c.386.065.782-.024 1.104-.247l-1.14-1.643a.502.502 0 0 1 .368-.083l-.332 1.973Zm1.331-.465c.139-.183.233-.396.274-.622l-1.966-.363a.517.517 0 0 1 .098-.222l1.594 1.207Zm.274-.622c.042-.226.03-.458-.034-.679l-1.92.56a.53.53 0 0 1-.012-.244l1.966.363Zm-.994-.399h1V390.886h-2V390.907h1Zm.946-.345a3.809 3.809 0 0 1-.179-1.675l-1.986-.233a5.805 5.805 0 0 0 .273 2.556l1.892-.648Zm-.178-1.678c.022-.196.113-.53.27-.921.153-.381.341-.743.512-.995l-1.653-1.125a7.514 7.514 0 0 0-.714 1.373c-.189.468-.351.991-.403 1.441l1.988.227Zm.425-3.362-.03-.015-.003-.002c.005.003.032.018.067.042l-1.161 1.629c.059.042.111.072.143.088l.035.019.008.004.002.001.939-1.766Zm-.005-.001c-.111-.072-.247-.212-.257-.663l-1.999.041c.019.915.352 1.774 1.172 2.303l1.084-1.681Zm-1.256-.642h1V384.87h-2V384.879h1Zm.967-.262a.824.824 0 0 1-.083.62l-1.734-.996a1.176 1.176 0 0 0-.118.882l1.935-.506Zm-.06.579a.828.828 0 0 1-.4.377l-.809-1.829a1.178 1.178 0 0 0-.57.538l1.779.914Zm-.4.377a.825.825 0 0 1-.547.043l.518-1.932a1.176 1.176 0 0 0-.78.06l.809 1.829Zm-.527.048a.835.835 0 0 1-.575-.508c-.055-.142-.049-.268-.048-.205l2-.052c0-.005.004-.23-.086-.463a1.16 1.16 0 0 0-.813-.714l-.478 1.942Zm-.623-.739c0 .198-.019 1.363 1.01 2.032l1.09-1.677c-.027-.018-.05-.042-.071-.11a.822.822 0 0 1-.029-.245h-2Zm1.013 2.033c1.049.679 2.097.204 2.636-.151.567-.374.976-.87.959-.851l-1.467-1.359c-.059.064-.277.333-.593.54a.945.945 0 0 1-.348.159c-.051.009-.069.003-.102-.018l-1.085 1.68Zm3.728-1.182a.825.825 0 0 1-.5.384l-.52-1.931c-.3.081-.557.277-.713.548l1.733.999Zm-.5.384a.82.82 0 0 1-.624-.081l.995-1.735a1.175 1.175 0 0 0-.891-.115l.52 1.931Zm-.624-.081a.827.827 0 0 1-.386-.5l1.931-.523a1.178 1.178 0 0 0-.55-.712l-.995 1.735Zm-.386-.5a.827.827 0 0 1 .082-.627l1.733.998c.156-.27.198-.592.116-.894l-1.931.523Zm.077-.619c.039-.069.072-.105.043-.069a3.095 3.095 0 0 1-.324.327c-.235.202-.487.356-.707.41l.478 1.942c.655-.161 1.188-.539 1.534-.837a5.056 5.056 0 0 0 .581-.593c.022-.028.087-.108.137-.198l-1.742-.982Zm-.995.669a.637.637 0 0 1-.157.02l.011 2c.215-.001.429-.028.638-.081l-.492-1.939Zm-.152.02a.41.41 0 0 1-.115-.016l-.547 1.924c.216.061.439.092.663.092l-.001-2Zm-1.204.367a6.935 6.935 0 0 0-.707 1.326c-.186.453-.352.971-.402 1.414l1.988.22c.02-.174.107-.494.264-.874.152-.37.334-.711.488-.928l-1.631-1.158Zm-1.107 2.724a5.323 5.323 0 0 0 .928 3.733l1.635-1.152a3.32 3.32 0 0 1-.579-2.329l-1.984-.252Zm.935 3.742c.383.531.896.954 1.489 1.23l.843-1.814a1.83 1.83 0 0 1-.71-.586l-1.622 1.17Zm1.506 1.238a4.715 4.715 0 0 0 3.038.264l-.481-1.942a2.715 2.715 0 0 1-1.748-.151l-.809 1.829Zm3.037.264a5.464 5.464 0 0 0 2.61-1.497l-1.435-1.393a3.46 3.46 0 0 1-1.654.948l.479 1.942Zm2.572-1.46c.468-.434.808-.987.983-1.6l-1.924-.549a1.485 1.485 0 0 1-.418.682l1.359 1.467Zm.997-1.654a.823.823 0 0 1-.363.513l-1.067-1.691a1.175 1.175 0 0 0-.521.737l1.951.441Zm-.363.513a.822.822 0 0 1-.617.107l.438-1.952a1.18 1.18 0 0 0-.888.154l1.067 1.691Zm-.617.107a.82.82 0 0 1-.513-.361l1.688-1.072a1.181 1.181 0 0 0-.737-.519l-.438 1.952Zm-.513-.361a.822.822 0 0 1-.108-.621l1.951.44a1.179 1.179 0 0 0-.155-.891l-1.688 1.072Zm-.098-.663a1.814 1.814 0 0 1-.505.844l1.375 1.453a3.829 3.829 0 0 0 1.06-1.773l-1.93-.524Zm-.53.869a3.81 3.81 0 0 1-1.836 1.033l.462 1.946a5.807 5.807 0 0 0 2.799-1.576l-1.425-1.403Zm-1.835 1.033c-.25.059-.506.089-.763.089l-.001 2c.412 0 .823-.048 1.224-.142l-.46-1.947Zm-.772.089a2.84 2.84 0 0 1-1.207-.259l-.834 1.818a4.853 4.853 0 0 0 2.058.441l-.017-2Zm-1.202-.256a2.178 2.178 0 0 1-.847-.701l-1.624 1.167a4.174 4.174 0 0 0 1.627 1.347l.844-1.813Zm-.845-.699a3.554 3.554 0 0 1-.274-.45l-1.779.914c.124.243.267.477.426.699l1.627-1.163Zm-2.01-.526a.426.426 0 0 1 .059-.074l1.402 1.427c.088-.087.166-.183.231-.287l-1.692-1.066Zm.098-.109a.252.252 0 0 1 .177-.064l-.081 1.999a1.75 1.75 0 0 0 1.229-.438l-1.325-1.497Zm.129-.065a.11.11 0 0 1 .018.002l-.329 1.973c.107.018.217.026.326.025l-.015-2Zm.03.004a.82.82 0 0 1 .529.339l-1.641 1.144c.179.256.452.43.759.485l.353-1.968Zm.529.339a.822.822 0 0 1 .135.617l-1.968-.356a1.18 1.18 0 0 0 .192.883l1.641-1.144Zm.135.617a.824.824 0 0 1-.341.53l-1.139-1.644c-.257.178-.433.45-.488.758l1.968.356Zm-.341.53a.822.822 0 0 1-.613.133l.353-1.968a1.176 1.176 0 0 0-.879.191l1.139 1.644Z" fill="#FCE7C7" mask="url(#c)"/><circle cx="914.5" cy="132.5" r="3" stroke="#FCE7C7" stroke-linecap="round" stroke-linejoin="round"/></svg>