<svg width="140" height="60" fill="none" xmlns="http://www.w3.org/2000/svg"><path d="M67.915 55.915h-.887v1.804h-.553v-1.804h-.888l-1.253 1.804h-.662l1.472-2.09-1.356-1.966h.6l1.198 1.782h.888v-1.78h.552v1.781h.887l1.207-1.782h.6l-1.355 1.974 1.47 2.083h-.66l-1.26-1.806ZM71.122 53.664h.552v3.224l2.732-3.224h.49v4.055h-.552v-3.223L71.62 57.72h-.498v-4.055ZM80.19 53.664v4.055h-.552v-3.57h-1.961l-.055 1.002a7.376 7.376 0 0 1-.296 1.944c-.155.452-.433.679-.833.678a1.603 1.603 0 0 1-.397-.061l.04-.47c.063.016.128.026.194.03a.526.526 0 0 0 .483-.293c.118-.226.192-.472.218-.725.036-.288.067-.668.093-1.14l.07-1.45h2.996ZM82.751 57.493a1.952 1.952 0 0 1-.747-.737 2.217 2.217 0 0 1 0-2.128c.176-.308.434-.562.747-.733a2.297 2.297 0 0 1 2.133 0c.312.17.57.424.743.733a2.247 2.247 0 0 1 0 2.128 1.923 1.923 0 0 1-.743.737 2.27 2.27 0 0 1-2.133 0Zm1.849-.417c.23-.13.419-.325.54-.559a1.848 1.848 0 0 0 0-1.65 1.379 1.379 0 0 0-.54-.56 1.654 1.654 0 0 0-1.565 0c-.231.132-.42.326-.545.56a1.817 1.817 0 0 0 0 1.65c.125.234.314.428.545.559a1.653 1.653 0 0 0 1.565 0ZM87.445 53.664h.552v3.223l2.733-3.223h.49v4.055h-.552v-3.223l-2.725 3.223h-.498v-4.055Zm1.02-.849a.939.939 0 0 1-.32-.74h.397a.625.625 0 0 0 .218.482c.153.125.347.19.545.181.2.009.395-.056.549-.18a.626.626 0 0 0 .222-.483h.397a.925.925 0 0 1-.323.74c-.241.185-.54.279-.845.263a1.263 1.263 0 0 1-.84-.263ZM97.058 55.915h-.934v1.804h-.552v-4.055h.552v1.782h.942l1.44-1.782h.6l-1.611 1.967 1.728 2.09h-.654l-1.51-1.806ZM100.935 57.493a1.952 1.952 0 0 1-.748-.737 2.214 2.214 0 0 1 0-2.128c.176-.308.435-.562.748-.733a2.294 2.294 0 0 1 2.132 0c.312.17.57.424.744.733a2.248 2.248 0 0 1 0 2.128 1.92 1.92 0 0 1-.744.737 2.267 2.267 0 0 1-2.132 0Zm1.848-.417c.231-.13.419-.325.541-.559a1.848 1.848 0 0 0 0-1.65 1.374 1.374 0 0 0-.541-.56 1.653 1.653 0 0 0-1.564 0c-.232.132-.42.326-.545.56a1.81 1.81 0 0 0 0 1.65c.124.234.313.428.545.559a1.652 1.652 0 0 0 1.564 0ZM110.205 53.664v4.055h-.506v-3.21l-1.657 2.715h-.249l-1.657-2.722v3.217h-.507v-4.055h.561l1.736 2.923 1.767-2.923h.512ZM115.818 53.664v4.055h-.553v-3.57h-2.569v3.57h-.552v-4.055h3.674ZM121.103 53.664v4.055h-.552v-3.57h-1.962l-.054 1.002a7.397 7.397 0 0 1-.296 1.944c-.156.452-.433.679-.833.678a1.604 1.604 0 0 1-.397-.061l.039-.47c.064.016.129.026.194.03a.523.523 0 0 0 .483-.293c.119-.225.193-.472.218-.725.036-.288.067-.668.093-1.14l.071-1.45h2.996ZM126.622 55.862h-3.425a1.436 1.436 0 0 0 .49 1.022c.311.265.711.404 1.121.389.24.003.479-.043.701-.135.212-.09.4-.225.552-.397l.311.355a1.746 1.746 0 0 1-.681.493 2.32 2.32 0 0 1-.899.17 2.29 2.29 0 0 1-1.117-.266 1.933 1.933 0 0 1-.759-.737 2.09 2.09 0 0 1-.272-1.064 2.16 2.16 0 0 1 .26-1.064c.166-.305.414-.559.717-.733a2.015 2.015 0 0 1 1.023-.262c.358-.005.71.085 1.02.262.3.174.545.426.708.73.176.328.264.695.257 1.067l-.007.17Zm-2.97-1.384a1.461 1.461 0 0 0-.455.975h2.903a1.461 1.461 0 0 0-.455-.975 1.51 1.51 0 0 0-1.993 0ZM129.704 55.915h-.934v1.804h-.552v-4.055h.552v1.782h.942l1.44-1.782h.6l-1.611 1.967 1.728 2.09h-.653l-1.512-1.806ZM133.585 57.496a1.91 1.91 0 0 1-.751-.737 2.105 2.105 0 0 1-.272-1.068 2.09 2.09 0 0 1 .272-1.064 1.92 1.92 0 0 1 .751-.732 2.231 2.231 0 0 1 1.086-.262 2.12 2.12 0 0 1 .946.205c.273.131.501.339.658.597l-.413.277a1.28 1.28 0 0 0-.514-.45 1.53 1.53 0 0 0-.678-.15 1.616 1.616 0 0 0-.797.197 1.39 1.39 0 0 0-.553.559 1.83 1.83 0 0 0 0 1.654c.127.234.319.426.553.555.244.133.519.201.797.197.235.002.466-.048.678-.147.21-.1.388-.254.514-.448l.413.278a1.557 1.557 0 0 1-.662.597c-.294.14-.616.21-.942.204a2.22 2.22 0 0 1-1.086-.262ZM125.19 31.786c-.35.318-.681.607-.997.91a17.639 17.639 0 0 1-2.422 2.017 7.36 7.36 0 0 1-2.998 1.192c-1.119.168-2.199-.314-2.621-1.435-.021-.057-.048-.112-.104-.239-.139.142-.255.254-.363.373a17.615 17.615 0 0 1-2.984 2.725c-.422.3-.88.544-1.365.728-1.397.504-2.757-.124-3.33-1.487-.342-.813-.309-1.648-.15-2.488.292-1.544.994-2.917 1.833-4.231.075-.118.143-.24.213-.362.005-.009-.005-.026-.018-.077a3.046 3.046 0 0 0-.319.158c-.991.637-1.977 1.28-2.968 1.915a.97.97 0 0 0-.395.554 26.151 26.151 0 0 1-4.355 8.042 10.863 10.863 0 0 1-1.524 1.458 2.86 2.86 0 0 1-.917.469c-1.452.494-2.666-.468-2.527-1.985a5.858 5.858 0 0 1 .49-1.8 13.314 13.314 0 0 1 2.31-3.518 33.072 33.072 0 0 1 4.232-4.009 1.066 1.066 0 0 0 .438-.778 3.593 3.593 0 0 0-.03-1.438c-.152-.512-.314-.622-.854-.591a5.394 5.394 0 0 0-1.899.524 10.724 10.724 0 0 0-3.472 2.625 30.063 30.063 0 0 0-5.313 7.98c-.085.2-.19.393-.314.573a1.132 1.132 0 0 1-1.987-.228 1.116 1.116 0 0 1-.013-.779c.037-.118.088-.234.136-.348.917-2.222 1.834-4.445 2.753-6.667.538-1.298 1.09-2.59 1.636-3.886.077-.184.15-.37.268-.655-.155.103-.226.142-.289.193-.799.66-1.6 1.316-2.391 1.985a8.853 8.853 0 0 0-.742.714 1.07 1.07 0 0 1-1.158.307 1.02 1.02 0 0 1-.644-1 1.298 1.298 0 0 1 .436-.953c.77-.716 1.536-1.436 2.308-2.15 1.428-1.322 2.859-2.641 4.292-3.958.197-.201.345-.444.433-.711 1.015-2.488 2.015-4.979 3.055-7.455.8-1.919 1.746-3.775 2.831-5.552a9.866 9.866 0 0 1 1.7-2.237 9.81 9.81 0 0 1 1.36-1 1.97 1.97 0 0 1 1.367-.255 1.835 1.835 0 0 1 1.422 1.108c.38.798.352 1.643.229 2.482-.265 1.824-1.021 3.465-1.997 5.013a45.394 45.394 0 0 1-5.897 7.36c-.666.687-1.364 1.344-2.032 2.029-.173.178-.31.386-.407.614-.685 1.66-1.356 3.326-2.029 4.99a.346.346 0 0 0-.02.244c.124-.11.25-.217.372-.327a11.39 11.39 0 0 1 4.125-2.488 5.91 5.91 0 0 1 2.505-.35 2.525 2.525 0 0 1 2.009 1.313c.26.534.488 1.083.682 1.643.092-.055.226-.133.357-.214a32.485 32.485 0 0 1 6.277-3.119 21.97 21.97 0 0 1 3.139-.823 3.186 3.186 0 0 1 2.956.912c.109-.053.216-.116.33-.162a1.087 1.087 0 0 1 1.225.22 1.023 1.023 0 0 1 .279 1.198 5.783 5.783 0 0 1-.406.738c-.577.966-1.189 1.913-1.727 2.9a8.1 8.1 0 0 0-.942 2.683 4.75 4.75 0 0 0-.005.686c.33.048.666 0 .969-.14.962-.323 1.741-.932 2.488-1.584a28.496 28.496 0 0 0 3.857-4.237c1.617-2.116 3.182-4.27 4.643-6.495.197-.3.402-.597.621-.884.407-.533.875-.7 1.39-.519.537.19.812.64.79 1.3-.003.093-.019.185-.033.327.118-.033.215-.052.306-.086a12.816 12.816 0 0 1 2.533-.728c2.194-.36 3.983 1.022 4.156 3.23.057.921-.04 1.845-.285 2.735-.505 1.967-1.244 3.83-2.5 5.46-1.025 1.328-2.195 2.496-3.78 3.173-1.139.487-2.312.712-3.546.437a3.546 3.546 0 0 1-1.695-.88c-.419-.398-.816-.818-1.242-1.247l-6.528 14.548a1.82 1.82 0 0 1-.346.767c-.142.214-.347.38-.587.474a1.144 1.144 0 0 1-1.136-.237 1.123 1.123 0 0 1-.329-1.103c.057-.211.13-.417.22-.616.434-1.037.88-2.07 1.311-3.108 1.063-2.569-.048.222 1.019-2.345 1.325-3.189 2.795-6.313 4.32-9.412.103-.21.201-.42.311-.65Zm2.908-.69c.061.26.365 1.429 1.463 2.02.393.205.829.318 1.274.328 1.147.056 2.024-.484 2.59-.88a8.863 8.863 0 0 0 2.037-2.068c1.132-1.542 1.768-3.295 2.141-5.146.096-.442.125-.896.086-1.347a1.66 1.66 0 0 0-.482-1.043c-.605-.533-1.671-.209-2.362.001-.978.3-1.883.798-2.657 1.462-1.168 1.018-1.934 2.472-3.415 5.338a69.511 69.511 0 0 0-.675 1.335Zm-10.123-3.363a1.46 1.46 0 0 0-.646-.826c-.634-.342-1.422.007-1.75.152-.164.065-.32.149-.466.248-.255.208-.55.367-.799.58a14.05 14.05 0 0 0-3.965 5.724 4.24 4.24 0 0 0-.299 1.6c.012.751.281.91.922.54.23-.135.452-.285.662-.448.285-.221.562-.452.831-.694a27.18 27.18 0 0 0 3.967-4.627c.513-.726 1.006-1.465 1.543-2.249ZM107.23 7.473l-.1-.06c-.249.209-.48.437-.69.684-.496.682-.99 1.37-1.423 2.092-1.34 2.231-2.338 4.625-3.353 7.01-.035.082-.059.169-.123.356.147-.136.217-.19.274-.256a41.816 41.816 0 0 0 3.701-4.908 12.267 12.267 0 0 0 1.496-3.269 4.4 4.4 0 0 0 .218-1.65ZM99 39.952c1.588-1.48 2.728-3.243 3.732-5.097-1.57 1.484-2.948 3.096-3.731 5.097ZM40.5 13.04c.184-.159.358-.315.54-.463a5.248 5.248 0 0 1 2.883-1.288c.485-.012.971.01 1.454.064.183.025.368.034.552.028a.994.994 0 0 1 1.055.481.97.97 0 0 1 .12.39c.035.325.01.654-.07.971a.986.986 0 0 1-.51.615 1.007 1.007 0 0 1-.803.042.962.962 0 0 1-.34-.158c-.39-.35-.846-.3-1.295-.201-.668.14-1.28.472-1.76.954-.402.395-.773.82-1.108 1.273a13.134 13.134 0 0 0-2.436 5.871 5.548 5.548 0 0 0 .06 2.095c.045.198.115.388.21.568a.995.995 0 0 0 .92.547 3.454 3.454 0 0 0 1.457-.35 12.266 12.266 0 0 0 2.714-1.683 27.773 27.773 0 0 0 4.974-5.048c1.124-1.486 2.265-2.96 3.39-4.446.245-.323.454-.675.69-1.007.117-.184.256-.354.412-.508a1.133 1.133 0 0 1 1.802.463c.083.229.089.478.016.71a3.305 3.305 0 0 1-.236.509c-.678 1.286-1.375 2.562-2.03 3.858a9.434 9.434 0 0 0-.925 2.936c-.016.108-.031.216-.037.325.005.08.015.158.032.236.2-.043.396-.107.582-.192.578-.347 1.162-.688 1.703-1.087a19.113 19.113 0 0 0 3.548-3.49c1.193-1.492 2.356-3.01 3.534-4.514.158-.214.328-.42.51-.614.464-.473.996-.563 1.496-.278a1.24 1.24 0 0 1 .538 1.428c-.1.295-.225.582-.374.855-.414.841-.864 1.666-1.247 2.52a10.861 10.861 0 0 0-.829 2.725c-.04.247-.059.496-.056.745.008.418.077.46.482.395.48-.098.93-.309 1.31-.615a21.28 21.28 0 0 0 3.622-3.347 57.912 57.912 0 0 0 3.622-4.798c.121-.183.253-.358.394-.526a1.169 1.169 0 0 1 1.327-.341c.222.087.41.243.535.444.126.2.183.436.163.672-.012.264-.07.524-.17.77-.58 1.364-1.192 2.716-1.772 4.082a49.766 49.766 0 0 0-.956 2.44c-.144.337-.181.71-.106 1.07.413.008.82-.093 1.179-.294a10.474 10.474 0 0 0 2.143-1.446 36.842 36.842 0 0 0 4.41-4.498c.747-.887 1.477-1.788 2.213-2.684.198-.305.508-.522.865-.606a1.277 1.277 0 0 1 1.072.379 1.252 1.252 0 0 1 .332 1.078 2.507 2.507 0 0 1-.186.626c-.236.544-.5 1.077-.739 1.62-.606 1.37-1.244 2.729-1.79 4.123a15.969 15.969 0 0 0-.582 2.261c-.079.29-.05.597.081.866a.857.857 0 0 0 .678-.155c.789-.423 1.582-.84 2.349-1.301.727-.437 1.42-.928 2.131-1.39.284-.197.58-.376.886-.535a1.015 1.015 0 0 1 1.24.264.951.951 0 0 1 .036 1.215 4.222 4.222 0 0 1-.803.848 30.007 30.007 0 0 1-5 3.011 3.105 3.105 0 0 1-1.78.366 2.47 2.47 0 0 1-1.316-.64 2.432 2.432 0 0 1-.716-1.268 4.896 4.896 0 0 1 .05-2.227c.129-.576.282-1.147.45-1.821-.16.14-.258.218-.347.306a24.155 24.155 0 0 1-3.203 2.768 7.95 7.95 0 0 1-2.513 1.264 3.639 3.639 0 0 1-1.82.06 2.02 2.02 0 0 1-1.077-.598 1.988 1.988 0 0 1-.523-1.108 6.098 6.098 0 0 1-.028-1.117c.002-.182.037-.365.067-.633-.172.157-.28.262-.395.36-.87.744-1.724 1.508-2.618 2.223-.7.565-1.536.941-2.426 1.093-1.546.27-2.812-.608-3.026-2.145-.057-.41-.042-.83-.065-1.35-.134.165-.224.288-.325.401a22.054 22.054 0 0 1-3.86 3.437 6.653 6.653 0 0 1-2.513 1.145 2.202 2.202 0 0 1-1.857-.393 2.147 2.147 0 0 1-.845-1.685 1.084 1.084 0 0 0-.084-.456c-.122.128-.247.254-.366.385a29.624 29.624 0 0 1-4.364 4.004c-1.155.85-2.367 1.604-3.771 1.995-.786.254-1.631.26-2.42.015-1.34-.456-2.028-1.463-2.326-2.781-.05-.224-.086-.452-.149-.786a27.903 27.903 0 0 1-2.485 3.331c-1.023 1.154-2.407 2.717-4.712 3.558a9.183 9.183 0 0 1-4.39.307 2.472 2.472 0 0 1-1.063-.475 1.311 1.311 0 0 1-.547-.85 1.293 1.293 0 0 1 .227-.981 1.056 1.056 0 0 1 .83-.525 1.07 1.07 0 0 1 .907.375c.656.7 2.849.112 3.377-.072 1.84-.64 4.768-3.768 7.487-8.59 0 0 .569-.883 1.871-4.433a5.472 5.472 0 0 0 .183-1.573c.004-.598-.24-.794-.836-.704-.405.058-.8.172-1.173.338-.842.385-1.663.814-2.485 1.241a2.561 2.561 0 0 0-.472.384 1.08 1.08 0 0 1-1.305.16c-.21-.13-.364-.332-.435-.566a.996.996 0 0 1 .051-.71c.104-.259.27-.49.482-.673a11.628 11.628 0 0 1 4.712-2.377 3.506 3.506 0 0 1 1.642-.002c.348.085.676.238.964.451.503.376.73.918 1.074 1.683.07.157.124.288.16.379ZM49.097 43.493c.323-.185.558-.301.773-.448a19.053 19.053 0 0 0 2.615-2.224c1.301-1.279 2.424-2.712 3.587-4.108 1.001-1.205 1.979-2.43 2.969-3.645.105-.136.22-.264.346-.383a1.068 1.068 0 0 1 1.144-.219 1.077 1.077 0 0 1 .741.944c.033.327-.018.657-.15.96-.63 1.597-1.25 3.198-1.872 4.8a1.227 1.227 0 0 0-.107.554c.11-.081.22-.16.327-.244.42-.33.831-.67 1.263-.984.215-.157.45-.286.699-.384a1.424 1.424 0 0 1 1.82.578c.115.202.178.429.184.661.034.465-.009.936-.014 1.404-.003.264 0 .527 0 .874.148-.044.291-.103.427-.176a8.67 8.67 0 0 0 1.152-.89c1.256-1.294 2.511-2.592 3.713-3.934a85.885 85.885 0 0 0 5.75-7.37c.128-.179.254-.36.397-.525.41-.476.937-.605 1.435-.36.264.127.48.336.611.597.132.26.174.556.119.842a14.046 14.046 0 0 1-.568 1.684c-.622 1.517-1.3 3.011-1.895 4.538a17.457 17.457 0 0 0-.658 2.337 4.27 4.27 0 0 0-.012.942c.351-.03.686-.157.967-.368a16.674 16.674 0 0 0 2.634-2.053 40.214 40.214 0 0 0 5.17-5.96c.813-1.13 1.589-2.288 2.383-3.433.162-.25.336-.49.523-.721a1.133 1.133 0 0 1 1.323-.348c.224.084.413.239.54.44.127.201.183.438.161.674a3.696 3.696 0 0 1-.286 1.122c-.368.861-.781 1.704-1.176 2.554l-.201.436c.186 0 .319-.006.452.002.345.003.689.03 1.03.081a2.374 2.374 0 0 1 1.392.778c.36.411.564.934.577 1.478a5.088 5.088 0 0 1-.493 2.501 9.922 9.922 0 0 1-3.346 4.045 5.03 5.03 0 0 1-2.014.881c-1.521.282-2.702-.642-2.757-2.17 0-.72.11-1.434.326-2.12.084-.263.14-.532.17-.805-.1.097-.203.189-.296.29a25.447 25.447 0 0 1-3.81 3.496c-.586.42-1.2.8-1.84 1.138a3.05 3.05 0 0 1-1.825.357 2.015 2.015 0 0 1-1.06-.425 1.987 1.987 0 0 1-.652-.93 4.34 4.34 0 0 1-.154-2.22c.072-.52.206-1.033.328-1.626-.128.126-.213.202-.288.286-1.253 1.403-2.495 2.817-3.76 4.209a14.727 14.727 0 0 1-2.44 2.208 4.77 4.77 0 0 1-1.467.734c-1.241.34-2.334-.235-2.707-1.456a12.186 12.186 0 0 1-.243-1.224 3.017 3.017 0 0 0-.297.206c-1.024.903-2.043 1.812-3.07 2.712a1.49 1.49 0 0 0-.4.672c-.816 2.31-1.615 4.627-2.47 6.922a32.605 32.605 0 0 1-2.363 4.893 10.175 10.175 0 0 1-1.59 2.147 4.006 4.006 0 0 1-2.367 1.255 2.498 2.498 0 0 1-1.891-.486 2.458 2.458 0 0 1-.946-1.694 5.794 5.794 0 0 1 .363-2.62 14.542 14.542 0 0 1 2.02-3.637 57.86 57.86 0 0 1 4.559-5.438c.862-.933 1.746-1.846 2.611-2.776.127-.135.227-.293.292-.467.336-.94.656-1.887.98-2.831a.252.252 0 0 0-.016-.21c-.13.15-.26.296-.386.447a25.51 25.51 0 0 1-4.683 4.477c-.52.35-1.07.655-1.643.91a2 2 0 0 1-1.478.088c-.826-.26-1.225-.882-1.388-1.684a5.913 5.913 0 0 1 .042-2.096c.286-1.63.73-3.228 1.325-4.774.53-1.467 1.08-2.93 1.612-4.397.075-.187.116-.386.122-.587a1.01 1.01 0 0 1 .332-.725 1.028 1.028 0 0 1 .757-.267c.31.031.594.18.794.416.2.235.3.539.277.846-.029.169-.072.335-.129.497-.622 1.915-1.237 3.831-1.875 5.74a21.967 21.967 0 0 0-.942 3.57c-.056.368-.067.74-.11 1.22Zm4.47 5.058-.055-.037c-.063.06-.132.114-.188.178-.677.782-1.368 1.552-2.022 2.351a21.611 21.611 0 0 0-2.438 3.443c-.307.578-.567 1.179-.778 1.798a4.8 4.8 0 0 0-.154 1.15c-.018.22.136.339.332.266.28-.091.543-.227.779-.404a6.265 6.265 0 0 0 1.328-1.691 37.854 37.854 0 0 0 2.864-6.145c.113-.303.221-.606.332-.91Zm29.446-9.392a1.974 1.974 0 0 0 1.14-.42 7.51 7.51 0 0 0 2.621-3.122c.16-.371.266-.763.315-1.164.047-.341-.046-.44-.069-.47-.235-.323-1.006-.24-1.506-.036-1.269.517-1.748 2.203-2.16 3.653-.146.512-.26 1.033-.34 1.56ZM11.085 8.017c-1.557.59-3.125 1.149-4.664 1.778-1.045.428-2.068.92-3.066 1.448-.571.329-1.114.703-1.624 1.12-.686.522-1.579.236-1.718-.573a1.15 1.15 0 0 1-.002-.33c.268-1.744 4.264-3.325 4.264-3.325 2.331-.921 3.497-1.382 7.734-2.782a.959.959 0 0 0 .463-.3c.116-.16.183-.348.193-.544a1.967 1.967 0 0 1 1.043-1.48 1.015 1.015 0 0 1 1.361.37.99.99 0 0 1 .137.493c.007.122 0 .245 0 .42.402-.115.775-.216 1.144-.327 2.74-.821 5.502-1.563 8.303-2.157a48.622 48.622 0 0 1 5.353-.872c.55-.047 1.102-.061 1.654-.043.255-.01.504.078.697.244a.995.995 0 0 1 .341.65.966.966 0 0 1-.185.71.983.983 0 0 1-.633.38c-.691.149-1.392.263-2.094.351a63.367 63.367 0 0 0-7.406 1.427c-2.654.66-5.279 1.426-7.89 2.24a.837.837 0 0 0-.575.537c-1.718 4.16-3.171 8.413-4.483 12.712-1.747 5.73-3.47 11.468-5.208 17.203-.135.447-.287.891-.462 1.325a1.098 1.098 0 0 1-.432.573c-.205.138-.45.204-.698.187-.793-.023-1.259-.742-1.004-1.54.276-.862.56-1.72.823-2.587.684-2.253 1.367-4.507 2.048-6.762.495-1.639 1.593-5.42 2.837-9.364.936-2.964 2.18-6.76 3.749-11.182Z" fill="#fff"/><path d="M42.876 31.539c.067-.306.123-.597.193-.883.47-1.92 1.771-3.15 3.455-4.055 1.602-.861 3.338-1.052 5.126-1.006 1.039.026 2.08.016 3.119-.003 1.14-.02 2.24-.31 3.35-.535 1.217-.25 2.431-.509 3.648-.755.201-.038.406-.054.61-.046a1.13 1.13 0 0 1 .781.28 1.11 1.11 0 0 1 .134 1.523c-.178.223-.435.37-.72.41-.461.095-.929.163-1.39.258-1.495.305-2.982.648-4.483.912-.87.146-1.748.23-2.629.251-1.29.04-2.586-.025-3.876.015a5.95 5.95 0 0 0-3.922 1.627 3.335 3.335 0 0 0-1.088 2.46c-.01.422.021.843.096 1.258.402 2.212-.037 4.311-.828 6.368-1.286 3.34-3.187 6.26-5.977 8.569a8.312 8.312 0 0 1-2.27 1.415 3.432 3.432 0 0 1-1.753.28c-1.262-.186-2.073-1.014-2.322-2.314a6.003 6.003 0 0 1 .158-2.55 18.532 18.532 0 0 1 1.71-4.348 28.424 28.424 0 0 1 4.628-6.473 10.058 10.058 0 0 1 3.287-2.321c.315-.134.648-.228.963-.337ZM43 33.693c-.246.136-.441.234-.625.349a12.125 12.125 0 0 0-2.364 2.004 26.119 26.119 0 0 0-3.51 4.806 18.044 18.044 0 0 0-1.95 4.55 3.838 3.838 0 0 0-.148 1.803c.08.365.197.467.559.387.306-.068.6-.179.874-.33.778-.447 1.489-1 2.112-1.643a18.799 18.799 0 0 0 4.958-8.695A7.488 7.488 0 0 0 43 33.693ZM16.116 22.895a3.696 3.696 0 0 0 1.544-.88c.954-.86 1.919-1.716 2.806-2.644a51.045 51.045 0 0 0 4.42-5.429c.156-.215.308-.435.48-.637a1.151 1.151 0 0 1 1.46-.322 1.12 1.12 0 0 1 .527 1.388 5.885 5.885 0 0 1-.336.77 20.208 20.208 0 0 0-1.852 5.872c-.038.26-.061.522-.1.848.129-.032.254-.072.376-.122a12.975 12.975 0 0 0 2.511-1.654c.236-.206.485-.399.744-.576.483-.323.98-.305 1.348.024.386.344.452.841.13 1.361a3.88 3.88 0 0 1-.672.839 13.678 13.678 0 0 1-3.474 2.233c-.245.107-.5.188-.762.243a1.891 1.891 0 0 1-1.441-.182 1.866 1.866 0 0 1-.877-1.148 4.562 4.562 0 0 1-.08-2.04c.046-.242.06-.49.045-.735-.108.113-.22.226-.326.341a29.325 29.325 0 0 1-3.762 3.547 6.141 6.141 0 0 1-1.939 1.044c-1.625.493-2.851-.344-3.113-1.983a7.361 7.361 0 0 1 .092-2.469 22.311 22.311 0 0 1 2.517-6.925c.226-.41.432-.832.646-1.25.1-.232.285-.42.518-.524.233-.104.497-.117.74-.038a.994.994 0 0 1 .553.452.978.978 0 0 1 .103.704c-.06.258-.146.51-.257.75-.612 1.488-1.26 2.96-1.835 4.462a13.496 13.496 0 0 0-.835 3.592c-.063.365-.029.74.1 1.088ZM76.845 6.354a1.009 1.009 0 0 1-.701-.34.99.99 0 0 1-.242-.734 1.337 1.337 0 0 1 .466-.946c.464-.42.957-.805 1.477-1.154 1.96-1.24 4.1-2.097 6.302-2.807.402-.13.812-.243 1.224-.338.238-.063.49-.04.714.062.223.103.402.28.507.5a.971.971 0 0 1-.413 1.299c-.444.264-.915.48-1.406.644a39.143 39.143 0 0 0-5.668 2.41c-.544.28-1.084.563-1.465 1.073a.886.886 0 0 1-.795.331Z" fill="#fff"/></svg>