<svg width="63" height="78" fill="none" xmlns="http://www.w3.org/2000/svg"><path fill="#fff" stroke="#476D5C" stroke-width="2" d="m1.365 31.25 51.76-29.884 7.824 13.552-51.76 29.884z"/><path fill="#476D5C" d="m26.112 40.817 16.044 27.788-15.284 8.824L10.828 49.64z"/><path d="M27.971 55.144v8.4h-1.56v-7.092h-1.776v-1.308h3.336Z" fill="#fff"/><path d="M35.162 26.126v1.32H28.97v-1.044l3.336-3.168c.376-.36.628-.672.756-.936.136-.272.204-.54.204-.804 0-.392-.132-.692-.396-.9-.264-.208-.652-.312-1.164-.312-.856 0-1.512.292-1.968.876l-1.092-.84c.328-.44.768-.78 1.32-1.02a4.574 4.574 0 0 1 1.872-.372c.912 0 1.64.216 2.184.648.544.432.816 1.02.816 1.764 0 .456-.096.884-.288 1.284-.192.4-.56.856-1.104 1.368l-2.244 2.136h3.96Z" fill="#476D5C"/></svg>