<svg width="117" height="19" fill="none" xmlns="http://www.w3.org/2000/svg"><g clip-path="url(#a)" fill="#97544A"><path d="M16.396 3.94a9.125 9.125 0 0 1 1.07 1.808l-8.142 6.106-3.402-2.17v-2.61l3.402 2.17 7.072-5.304ZM94.142 4.029v10.943h2.324v-4.47h4.956v4.47h2.324V4.03h-2.324v4.487h-4.956V4.029h-2.324ZM108.981 10.558h1.446l3.568 4.414H117l-4.756-5.66L116.4 4.03h-2.672l-3.463 4.69h-1.284v-4.69h-2.325v10.943h2.325v-4.414ZM90.145 14.972h2.448l-4.54-10.943h-2.371l-4.648 10.943h2.355l.939-2.204h4.94l.877 2.204Zm-5.125-4.034 1.801-4.393 1.693 4.393H85.02ZM76.173 8.294h-2.829V5.85h6.08l.006-1.822h-8.41v10.944h4.853c2.723 0 4.284-1.253 4.284-3.438 0-2.09-1.414-3.24-3.984-3.24Zm-.404 4.856h-2.425v-3.034h2.425c1.475 0 2.162.507 2.162 1.517 0 1.031-.727 1.517-2.162 1.517ZM52.52 5.85l2.434-1.822h-8.147v10.944h8.147V13.15h-5.822v-2.802h4.966V8.526h-4.966V5.85h3.388ZM40.659 8.294h-2.83V5.851h4.517l2.434-1.822h-9.275v10.943h4.854c2.723 0 4.284-1.253 4.284-3.438 0-2.09-1.415-3.24-3.984-3.24Zm-.405 4.856H37.83v-3.034h2.424c1.476 0 2.163.507 2.163 1.517 0 1.031-.728 1.517-2.163 1.517ZM61.554 4.029h-4.436v10.943h2.325v-3.1h2.11c2.83 0 4.59-1.512 4.59-3.927 0-2.416-1.759-3.916-4.59-3.916Zm-.05 6.021h-2.06v-4.2h2.06c1.49 0 2.31.746 2.31 2.1s-.82 2.1-2.31 2.1ZM31.514 12.602a4.11 4.11 0 0 1-2.007.511c-2.096 0-3.617-1.52-3.617-3.613 0-2.094 1.52-3.613 3.617-3.613a3.51 3.51 0 0 1 2.114.672l1.668-1.248-.11-.098c-.974-.869-2.275-1.328-3.762-1.328-1.614 0-3.078.553-4.123 1.556-1.052 1.01-1.63 2.43-1.63 4 0 1.576.576 3.017 1.624 4.057 1.051 1.043 2.512 1.618 4.114 1.618 1.676 0 3.14-.594 4.131-1.674l-1.504-1.126-.515.286Z"/><path d="M18.277 9.5c0-.546-.048-1.092-.144-1.63l-1.927 1.443c.002.062.002.125.003.187a7.086 7.086 0 0 1-1.456 4.322 6.878 6.878 0 0 1-3.764 2.491 6.777 6.777 0 0 1-4.474-.4 6.936 6.936 0 0 1-3.28-3.12 7.115 7.115 0 0 1-.692-4.515 7.04 7.04 0 0 1 2.19-3.989 6.826 6.826 0 0 1 4.141-1.767 6.798 6.798 0 0 1 4.332 1.205l1.74-1.303A8.83 8.83 0 0 0 9.325.407C4.379.407.37 4.477.37 9.5c0 5.022 4.008 9.093 8.953 9.093 4.944 0 8.953-4.07 8.953-9.093Z"/><path d="M16.408 3.94a9.123 9.123 0 0 1 1.073 1.808l-8.157 6.106-3.408-2.17v-2.61l3.408 2.17 7.084-5.304Z"/></g><defs><clipPath id="a"><path fill="#fff" d="M0 0h117v19H0z"/></clipPath></defs></svg>