<svg width="160" height="160" fill="none" xmlns="http://www.w3.org/2000/svg"><rect width="160" height="160" rx="80" fill="#476D5C"/><g clip-path="url(#a)" fill="#fff"><path d="M79.297 85.821c-.11 1.981-.049 4.08-.06 6.098a.059.059 0 0 1-.033.05c-.311.139-.756.322-1.301.505a16.273 16.273 0 0 1-5.388.816c-4.402 0-7.98-1.224-10.734-3.673-2.755-2.498-4.132-5.75-4.132-9.757 0-3.908 1.296-7.123 3.889-9.646 2.593-2.522 6.238-3.784 10.937-3.784 1.69-.006 3.37.244 4.983.742a14.96 14.96 0 0 1 1.734.688v6.2c-1.005-.66-3.508-2.122-6.717-2.066a8.692 8.692 0 0 0-4.218 1.003 7.7 7.7 0 0 0-1.494 1.075c-1.485 1.36-2.228 3.29-2.228 5.787 0 2.276.797 4.169 2.39 5.677 1.593 1.46 3.659 2.19 6.198 2.188 2.21.021 4.37-.645 6.174-1.903ZM130.633 85.821c-.11 1.981-.049 4.08-.061 6.098 0 .01-.003.02-.009.03a.065.065 0 0 1-.023.02c-.312.139-.757.322-1.302.505a16.268 16.268 0 0 1-5.387.817c-4.402 0-7.98-1.225-10.735-3.674-2.754-2.498-4.132-5.75-4.131-9.757 0-3.908 1.296-7.123 3.888-9.646 2.593-2.522 6.239-3.784 10.937-3.784 1.69-.006 3.37.244 4.983.742.592.193 1.171.423 1.734.688v6.2c-1.005-.66-3.508-2.122-6.717-2.066a8.69 8.69 0 0 0-4.218 1.003 7.674 7.674 0 0 0-1.493 1.075c-1.486 1.36-2.228 3.29-2.228 5.787 0 2.276.797 4.169 2.39 5.677 1.593 1.46 3.659 2.19 6.197 2.188 2.21.021 4.37-.645 6.175-1.903Z"/><path d="M91.762 92.846H85.28V66.874h6.482v10.302a.355.355 0 0 0 .242.338.369.369 0 0 0 .404-.113l8.63-10.527h7.776L98.774 78.17a1.076 1.076 0 0 0-.028 1.399l10.92 13.276h-8.223l-9.03-11.523a.364.364 0 0 0-.405-.12.363.363 0 0 0-.246.34v11.303ZM54.01 66.32c.232.162.422.376.553.625.132.249.2.525.2.806v12.938c0 2.17-.003 7.219-.005 10.407a1.729 1.729 0 0 1-.521 1.236 1.776 1.776 0 0 1-1.256.51l-11.95-.013c-.47 0-.92-.185-1.253-.514a1.738 1.738 0 0 1-.519-1.237V59.475c0-.32.09-.635.258-.91.169-.274.41-.497.699-.645a1.795 1.795 0 0 1 1.84.122l11.953 8.278Z"/><path opacity=".7" d="M42.222 69.617H30.58c-.67 0-1.212.535-1.212 1.195v23.689c0 .66.543 1.195 1.212 1.195h11.643c.67 0 1.212-.535 1.212-1.195V70.812c0-.66-.542-1.195-1.212-1.195Z"/></g><defs><clipPath id="a"><path fill="#fff" transform="translate(29.367 57.722)" d="M0 0h101.266v37.975H0z"/></clipPath></defs></svg>