<svg width="105" height="33" fill="none" xmlns="http://www.w3.org/2000/svg"><path fill-rule="evenodd" clip-rule="evenodd" d="M33.003 27.498h-3.778l1.723-3.036-4.28-7.62h3.836l2.221 4.527 2.223-4.528h3.778l-5.723 10.657ZM80.731 27.498h-4.723c-2.612 0-4.667-2.153-4.667-5.19 0-3.424 2.055-5.467 4.667-5.467h4.723v2.65h-3.056c-1.834 0-2.89.553-2.89 2.762 0 2.152 1.056 2.595 2.89 2.595h3.056v2.65ZM93.121 27.498h-3.5v-7.51l-4 7.51h-4.168V16.841h3.445v7.29l4-7.29h4.223v10.657ZM52.562 16.841 48.06 27.498h3.667l.834-2.208h3.888l.834 2.208H63.062l2.778-7.675 2.723 7.675h3.667l-4.5-10.657h-3.835l-3.722 8.835-3.723-8.835h-3.888Zm.832 6.018 1.112-3.036 1.11 3.036h-2.222ZM39.004 27.498h3.445v-3.093h3.723c3.611 0 3.611-3.202 3.611-3.919 0-.663 0-3.645-3.611-3.645h-7.168v10.657Zm5.945-5.743h-2.5v-2.263h2.5c.389 0 1.39 0 1.39 1.104 0 1.16-1.001 1.16-1.39 1.16ZM103.956 19.491v-2.65H93.788v10.657h7.057c3.61 0 3.61-2.153 3.61-3.368 0-1.16 0-3.258-3.667-3.258h-3.5v-1.38h6.668Zm-6.668 5.523v-1.657h2.945c.778 0 .778.552.778.773 0 .275 0 .884-.778.884h-2.945ZM11.168 15.405c.11 5.025.444 11.32 2.112 15.573.166.44.443.938.666 1.38-1.056.276-2.167.496-3.278.496-1.168 0-2.278-.22-3.278-.496.278-.553.5-1.05.723-1.547 1.554-4.196 1.999-10.437 2.055-15.406h1Zm-.055-3.865c.277 0 .555 0 .777.11l-.056-7.234h.89s-.111 1.988.278 7.4c4.778 1.05 8.39 5.246 8.39 10.326 0 3.81-2.001 7.068-4.946 8.946-.055-.056-.166-.222-.278-.332-3.166-4.03-3.945-10.05-4.167-15.295.445.11.89.165 1.334.22.889 5.743 3.555 9.553 5.722 11.928 1-1.325 1.612-2.817 1.612-4.474 0-1.931-.778-3.644-2.056-5.024s-3-2.485-5.111-3.037a11.74 11.74 0 0 0-2.834-.332c-.945 0-1.89.111-2.833.332-4.112 1.05-7.168 4.252-7.168 8.061 0 1.657.61 3.15 1.556 4.474 2.222-2.375 4.833-6.185 5.722-11.928.445-.055.89-.11 1.39-.22-.223 5.245-1.001 11.209-4.168 15.24v-.055c-.11.165-.222.332-.333.442C1.889 29.21 0 25.953 0 22.142c0-5.08 3.556-9.276 8.39-10.326.278-5.412.222-7.4.222-7.4H9.5l-.055 7.235c.222-.11.5-.11.723-.11V.881h.945V11.54Z" fill="#97544A"/></svg>