<svg width="78" height="28" fill="none" xmlns="http://www.w3.org/2000/svg"><path fill-rule="evenodd" clip-rule="evenodd" d="M22.461 3.666H3.998L5.328.008h18.463l-1.33 3.658Zm-.665 1.829H3.326L1.994 9.152h18.463l1.338-3.657ZM1.33 10.965H19.8l-1.354 3.657H0l1.33-3.658ZM38.87 15.844v-.075l.042-.017a5.329 5.329 0 0 0 1.729-1.172 4.863 4.863 0 0 0 1.405-3.574c0-2.768-1.671-4.522-4.215-5.204a13.002 13.002 0 0 0-3.325-.307h-7.032v21.953h7.905a11.198 11.198 0 0 0 3.192-.307c2.619-.648 4.215-2.818 4.215-5.819a5.179 5.179 0 0 0-1.863-4.298 7.706 7.706 0 0 0-2.053-1.18Zm10.566 11.613V9.169h-6.351V5.495h17.631l-1.255 3.682h-5.62v18.288l-4.405-.008ZM62.088 5.495v21.962l7.099-.009c2.926 0 4.364-.265 5.736-1.213a6.31 6.31 0 0 0 2.585-5.437 6.467 6.467 0 0 0-2.17-5.203c-1.022-.873-2.502-1.555-5.353-1.555h-3.533V9.177h8.67l1.255-3.682h-14.29Zm7.689 18.28h-3.325v-6.102h3.292a3.325 3.325 0 0 1 2.086.532 2.893 2.893 0 0 1 1.139 2.494c.038.75-.192 1.49-.648 2.086a2.901 2.901 0 0 1-2.544.99ZM34.33 14.29h-2.493V9.094h2.352a6.051 6.051 0 0 1 1.663.15 2.22 2.22 0 0 1 1.662 2.435 2.402 2.402 0 0 1-1.662 2.494 5.297 5.297 0 0 1-1.522.117Zm-2.493 3.798v5.761h3.042a3.266 3.266 0 0 0 2.353-.648c.626-.58.96-1.41.914-2.261a3.125 3.125 0 0 0-.582-1.879c-.648-.831-1.446-.99-2.81-.99l-2.917.017Z" fill="#97544A"/></svg>