<svg width="110" height="125" fill="none" xmlns="http://www.w3.org/2000/svg"><path d="M57 123a2 2 0 1 1-4 0 2 2 0 0 1 4 0ZM61 108l-6 8-6-8h12Z" fill="#97544A"/><path d="M110 55c0 30.376-24.624 55-55 55S0 85.376 0 55 24.624 0 55 0s55 24.624 55 55Z" fill="#97544A"/><path d="M53.809 69.686h-.507v1.022h-.316v-1.023h-.507l-.716 1.023h-.378l.84-1.184-.775-1.115h.343l.685 1.01h.507v-1.01h.316v1.01h.507l.69-1.01h.342l-.774 1.12.84 1.18h-.377l-.72-1.023ZM55.641 68.41h.316v1.826l1.561-1.826h.28v2.297h-.315v-1.826l-1.557 1.826h-.285V68.41ZM60.824 68.41v2.297h-.316v-2.022h-1.12l-.032.568a4.149 4.149 0 0 1-.17 1.1c-.088.257-.247.386-.475.385a.922.922 0 0 1-.227-.035l.022-.266c.037.01.074.015.112.017a.301.301 0 0 0 .276-.166c.067-.128.11-.267.124-.41.02-.164.038-.38.053-.647l.04-.822h1.713ZM62.287 70.58a1.112 1.112 0 0 1-.427-.418 1.248 1.248 0 0 1 0-1.206c.1-.175.248-.318.427-.415a1.322 1.322 0 0 1 1.219 0c.178.096.325.24.425.415a1.264 1.264 0 0 1 0 1.206c-.1.175-.247.32-.425.417a1.306 1.306 0 0 1-1.22 0Zm1.056-.237a.782.782 0 0 0 .31-.317 1.04 1.04 0 0 0 0-.935.784.784 0 0 0-.31-.317.951.951 0 0 0-.894 0 .8.8 0 0 0-.311.317 1.022 1.022 0 0 0 0 .936c.071.132.179.242.311.316a.95.95 0 0 0 .894 0ZM64.969 68.41h.315v1.827l1.562-1.827h.28v2.298h-.316v-1.826l-1.556 1.826h-.285V68.41Zm.583-.48a.532.532 0 0 1-.183-.42h.227a.351.351 0 0 0 .125.273.461.461 0 0 0 .31.103.47.47 0 0 0 .314-.103.355.355 0 0 0 .127-.273h.227a.52.52 0 0 1-.184.42.735.735 0 0 1-.483.148.727.727 0 0 1-.48-.15v.001ZM70.462 69.685h-.533v1.022h-.316V68.41h.316v1.01h.538l.823-1.01h.343l-.921 1.114.987 1.184h-.373l-.864-1.023ZM72.677 70.58a1.112 1.112 0 0 1-.427-.418 1.248 1.248 0 0 1 0-1.206c.101-.175.249-.318.427-.415a1.322 1.322 0 0 1 1.22 0c.178.096.325.24.424.415a1.264 1.264 0 0 1 0 1.206c-.1.175-.247.32-.425.417a1.306 1.306 0 0 1-1.219 0Zm1.057-.237a.78.78 0 0 0 .309-.317 1.04 1.04 0 0 0 0-.935.784.784 0 0 0-.31-.317.951.951 0 0 0-.893 0 .799.799 0 0 0-.312.317 1.023 1.023 0 0 0 0 .936c.072.132.18.242.312.316a.95.95 0 0 0 .894 0ZM77.975 68.41v2.297h-.29V68.89l-.946 1.538h-.143l-.947-1.542v1.822h-.289V68.41h.32l.992 1.656 1.01-1.656h.293ZM81.182 68.41v2.297h-.315v-2.022h-1.468v2.022h-.316V68.41h2.1ZM84.203 68.41v2.297h-.316v-2.022h-1.121l-.031.568a4.165 4.165 0 0 1-.17 1.1c-.088.257-.247.386-.475.385a.922.922 0 0 1-.227-.035l.022-.266c.037.009.074.015.111.017a.301.301 0 0 0 .276-.166c.068-.128.11-.267.125-.41.02-.164.038-.38.053-.647l.04-.822h1.713ZM87.356 69.655H85.4a.81.81 0 0 0 .28.58c.178.15.406.228.64.22.138.002.274-.025.401-.077a.874.874 0 0 0 .316-.225l.178.201a1.001 1.001 0 0 1-.39.28 1.338 1.338 0 0 1-.513.096 1.318 1.318 0 0 1-.639-.15 1.098 1.098 0 0 1-.433-.418 1.173 1.173 0 0 1-.156-.603c-.004-.21.048-.418.149-.603a1.07 1.07 0 0 1 .41-.415c.177-.1.38-.152.584-.149.204-.003.406.049.583.149.171.098.311.241.405.413.1.186.15.394.146.605l-.004.096Zm-1.697-.784a.825.825 0 0 0-.26.553h1.659a.825.825 0 0 0-.26-.553.867.867 0 0 0-1.139 0ZM89.118 69.685h-.534v1.022h-.316V68.41h.316v1.01h.538l.823-1.01h.343l-.921 1.114.987 1.184h-.373l-.863-1.023ZM91.335 70.581a1.088 1.088 0 0 1-.43-.417 1.184 1.184 0 0 1-.155-.606c-.003-.21.05-.419.156-.603.1-.174.25-.318.429-.414a1.28 1.28 0 0 1 .62-.149c.187-.003.373.037.541.116a.891.891 0 0 1 .376.339l-.236.157a.734.734 0 0 0-.293-.256.882.882 0 0 0-.388-.084.931.931 0 0 0-.456.111.79.79 0 0 0-.315.317 1.026 1.026 0 0 0 0 .937.791.791 0 0 0 .315.315c.14.075.297.114.456.111a.901.901 0 0 0 .388-.083.717.717 0 0 0 .293-.253l.236.157a.888.888 0 0 1-.378.338 1.224 1.224 0 0 1-.538.116 1.279 1.279 0 0 1-.621-.149ZM86.538 56.012c-.2.18-.39.344-.57.515-.425.421-.889.804-1.384 1.143a4.228 4.228 0 0 1-1.713.676c-.64.095-1.257-.178-1.498-.813-.012-.033-.027-.064-.059-.135-.08.08-.146.143-.208.211a10.025 10.025 0 0 1-1.705 1.544c-.24.17-.503.308-.78.413-.798.285-1.575-.07-1.902-.843-.196-.46-.177-.934-.087-1.41.168-.875.569-1.653 1.048-2.398.043-.066.082-.136.122-.205.003-.005-.003-.015-.01-.043a1.732 1.732 0 0 0-.183.089c-.566.361-1.13.726-1.696 1.085a.552.552 0 0 0-.226.314 14.787 14.787 0 0 1-2.488 4.558c-.262.302-.554.579-.87.826a1.642 1.642 0 0 1-.525.265c-.83.28-1.523-.265-1.444-1.125.038-.352.133-.696.28-1.019a7.535 7.535 0 0 1 1.32-1.994 18.831 18.831 0 0 1 2.419-2.272.603.603 0 0 0 .25-.44c.05-.27.043-.548-.018-.816-.087-.29-.18-.352-.487-.334a3.1 3.1 0 0 0-1.086.297 6.124 6.124 0 0 0-1.984 1.487 17.026 17.026 0 0 0-3.036 4.522 1.818 1.818 0 0 1-.18.325.652.652 0 0 1-1.135-.129.627.627 0 0 1-.007-.442c.021-.067.05-.132.078-.197.523-1.26 1.048-2.519 1.573-3.778.308-.736.623-1.468.935-2.202l.153-.371c-.089.058-.13.08-.165.109-.457.374-.914.746-1.367 1.125-.149.127-.29.262-.424.405a.613.613 0 0 1-.661.173.59.59 0 0 1-.275-.225.574.574 0 0 1-.093-.341.73.73 0 0 1 .249-.54c.44-.406.878-.814 1.319-1.219.816-.749 1.633-1.496 2.452-2.242.113-.114.198-.252.248-.403.58-1.41 1.151-2.822 1.746-4.225.457-1.087.997-2.14 1.617-3.146.261-.466.588-.893.972-1.268.242-.21.502-.4.777-.566.233-.14.511-.192.78-.145.18.027.35.099.492.209.142.11.253.254.322.419.217.452.2.931.13 1.406-.151 1.034-.583 1.964-1.14 2.841a25.778 25.778 0 0 1-3.37 4.171c-.381.39-.78.761-1.162 1.15-.098.1-.177.219-.232.348-.392.94-.775 1.885-1.16 2.828a.195.195 0 0 0-.01.137c.07-.061.141-.122.211-.185a6.522 6.522 0 0 1 2.358-1.41 3.406 3.406 0 0 1 1.431-.198c.24.02.47.098.67.228.201.13.365.307.478.516.148.303.279.614.39.931.052-.03.13-.075.204-.12a18.628 18.628 0 0 1 3.587-1.769 12.61 12.61 0 0 1 1.794-.466c.303-.063.617-.049.913.041.296.091.563.255.775.476.063-.03.124-.066.19-.092a.626.626 0 0 1 .7.125.582.582 0 0 1 .158.678 3.259 3.259 0 0 1-.231.418c-.33.548-.68 1.085-.987 1.644a4.554 4.554 0 0 0-.539 1.52c-.01.13-.01.26-.002.39.188.026.38-.001.553-.08.55-.183.995-.528 1.422-.898a16.195 16.195 0 0 0 2.204-2.4c.924-1.2 1.818-2.42 2.653-3.681.113-.17.23-.338.355-.501.233-.302.5-.397.794-.294.307.108.464.362.452.736-.002.053-.01.105-.02.185.068-.018.124-.028.176-.048a7.384 7.384 0 0 1 1.447-.412c1.254-.204 2.276.578 2.375 1.83a4.682 4.682 0 0 1-.163 1.55c-.288 1.114-.71 2.17-1.428 3.093-.586.753-1.255 1.415-2.16 1.799-.651.276-1.321.403-2.026.247a2.031 2.031 0 0 1-.97-.498c-.239-.226-.465-.464-.709-.707l-3.73 8.244c-.03.158-.099.307-.198.434a.713.713 0 0 1-.336.27.658.658 0 0 1-.649-.135.634.634 0 0 1-.188-.625 2.31 2.31 0 0 1 .126-.35c.248-.587.503-1.172.749-1.76.608-1.456-.027.125.582-1.33.758-1.806 1.598-3.577 2.47-5.333.058-.118.114-.238.177-.368Zm1.662-.39c.034.146.208.808.835 1.143.225.117.475.18.729.186.655.032 1.156-.274 1.48-.498a5.036 5.036 0 0 0 1.163-1.172c.648-.874 1.01-1.867 1.224-2.916.055-.25.072-.508.05-.764a.94.94 0 0 0-.276-.59c-.346-.303-.955-.119-1.35 0a4.25 4.25 0 0 0-1.518.828c-.668.577-1.105 1.401-1.952 3.025-.167.32-.3.585-.385.757Zm-5.785-1.907a.826.826 0 0 0-.37-.468c-.361-.194-.812.004-1 .086a1.373 1.373 0 0 0-.265.141c-.146.118-.315.208-.457.329a7.956 7.956 0 0 0-2.265 3.243 2.377 2.377 0 0 0-.171.907c.006.425.16.516.526.305.132-.076.258-.16.379-.253.162-.126.32-.257.474-.393a15.459 15.459 0 0 0 2.267-2.622c.293-.412.575-.83.882-1.275Zm-6.14-11.48-.057-.035a3.31 3.31 0 0 0-.395.388c-.283.387-.565.776-.813 1.186-.765 1.264-1.336 2.62-1.916 3.972-.02.047-.033.096-.07.202.084-.078.124-.108.156-.145a23.62 23.62 0 0 0 2.115-2.782 6.929 6.929 0 0 0 .856-1.852c.1-.301.143-.618.124-.935ZM71.572 60.64c.907-.839 1.559-1.838 2.132-2.888-.896.84-1.684 1.754-2.131 2.888ZM38.143 45.389c.105-.09.205-.179.308-.263a3.011 3.011 0 0 1 1.648-.73c.277-.007.555.006.83.037.105.014.211.019.316.016a.572.572 0 0 1 .603.272.547.547 0 0 1 .07.22c.019.185.005.372-.041.551a.558.558 0 0 1-.292.35.578.578 0 0 1-.459.023.552.552 0 0 1-.194-.09c-.223-.198-.483-.17-.74-.114-.381.08-.73.268-1.005.54-.23.225-.442.466-.634.722a7.409 7.409 0 0 0-1.392 3.327c-.065.395-.053.797.034 1.188.026.111.066.22.12.321a.566.566 0 0 0 .527.31c.289-.005.573-.073.832-.198a7.02 7.02 0 0 0 1.55-.954 15.803 15.803 0 0 0 2.843-2.86c.642-.843 1.294-1.678 1.937-2.52.14-.183.26-.382.394-.57.068-.105.147-.201.236-.288a.65.65 0 0 1 1.03.262c.047.13.05.271.009.403-.037.1-.082.196-.135.288-.387.728-.786 1.452-1.16 2.186a5.315 5.315 0 0 0-.55 1.848c.003.045.009.09.018.134.115-.024.227-.06.333-.109.33-.197.664-.39.973-.616.76-.57 1.442-1.234 2.027-1.978.682-.845 1.347-1.705 2.02-2.558a4.01 4.01 0 0 1 .291-.348c.266-.268.57-.319.855-.157a.698.698 0 0 1 .308.81c-.057.166-.129.329-.214.484-.236.476-.494.944-.712 1.427a6.116 6.116 0 0 0-.474 1.545c-.023.14-.034.28-.032.422.005.237.044.26.275.224a1.76 1.76 0 0 0 .749-.349 12.127 12.127 0 0 0 2.07-1.896 32.827 32.827 0 0 0 2.07-2.72 3.32 3.32 0 0 1 .225-.297.678.678 0 0 1 .758-.193.616.616 0 0 1 .399.632c-.007.15-.04.297-.097.436-.333.773-.682 1.54-1.013 2.313-.195.456-.376.918-.547 1.383a1.004 1.004 0 0 0-.06.606c.236.005.468-.052.674-.166a5.987 5.987 0 0 0 1.224-.82 20.959 20.959 0 0 0 2.52-2.549c.427-.502.844-1.013 1.265-1.52a.81.81 0 0 1 .494-.344.734.734 0 0 1 .613.215.709.709 0 0 1 .19.61 1.41 1.41 0 0 1-.107.355c-.135.309-.285.61-.422.918-.346.777-.711 1.547-1.023 2.337a8.978 8.978 0 0 0-.333 1.281.694.694 0 0 0 .047.49.493.493 0 0 0 .387-.087c.451-.24.904-.476 1.343-.737.415-.248.81-.526 1.217-.788.162-.111.331-.213.506-.303a.584.584 0 0 1 .71.15.536.536 0 0 1 .02.688c-.13.18-.284.342-.46.48a17.18 17.18 0 0 1-2.856 1.707c-.31.168-.665.24-1.017.207a1.417 1.417 0 0 1-.753-.362 1.375 1.375 0 0 1-.409-.719 2.75 2.75 0 0 1 .029-1.262c.073-.327.161-.65.257-1.032-.091.08-.148.123-.198.173a13.76 13.76 0 0 1-1.83 1.569 4.557 4.557 0 0 1-1.437.717c-.338.098-.696.11-1.04.033a1.157 1.157 0 0 1-.615-.339 1.123 1.123 0 0 1-.299-.627 3.43 3.43 0 0 1-.016-.633c0-.104.021-.207.038-.36-.098.09-.16.15-.225.205-.497.422-.986.855-1.496 1.26-.4.32-.878.533-1.386.62-.884.152-1.608-.345-1.73-1.216-.032-.233-.024-.471-.037-.766-.076.094-.128.164-.186.228a12.567 12.567 0 0 1-2.205 1.948 3.817 3.817 0 0 1-1.436.648 1.27 1.27 0 0 1-1.061-.223 1.208 1.208 0 0 1-.483-.955.612.612 0 0 0-.048-.258c-.07.073-.141.144-.21.218a16.877 16.877 0 0 1-2.493 2.27c-.66.48-1.353.908-2.155 1.13a2.312 2.312 0 0 1-1.383.009c-.765-.26-1.16-.83-1.33-1.577-.028-.127-.049-.256-.084-.445-.046.07-.112.173-.195.295a15.823 15.823 0 0 1-1.225 1.593c-.585.654-1.376 1.54-2.693 2.016a5.29 5.29 0 0 1-2.51.174 1.418 1.418 0 0 1-.606-.27.745.745 0 0 1-.312-.48.728.728 0 0 1 .13-.557.6.6 0 0 1 .473-.297.617.617 0 0 1 .519.212c.375.397 1.627.064 1.93-.04 1.05-.363 2.724-2.136 4.278-4.868 0 0 .325-.5 1.069-2.512.078-.29.113-.591.104-.892.003-.339-.137-.45-.477-.398a2.546 2.546 0 0 0-.67.19c-.481.22-.951.462-1.42.704-.099.062-.19.135-.27.217a.619.619 0 0 1-.746.09.56.56 0 0 1-.22-.722.993.993 0 0 1 .276-.381 6.664 6.664 0 0 1 2.693-1.347 2.02 2.02 0 0 1 .938-.001c.199.048.386.135.551.255.287.213.417.52.614.954.04.089.07.163.091.215ZM43.056 62.646c.184-.105.319-.17.441-.254a10.867 10.867 0 0 0 1.495-1.26c.743-.725 1.385-1.537 2.049-2.328.573-.683 1.131-1.377 1.697-2.066.06-.077.126-.15.198-.216a.613.613 0 0 1 .653-.125c.116.039.218.11.294.205.075.095.12.21.13.33a1.08 1.08 0 0 1-.086.544c-.36.905-.714 1.813-1.07 2.72a.69.69 0 0 0-.06.315c.062-.047.125-.092.186-.14.24-.186.475-.379.722-.557.123-.089.257-.162.399-.217a.82.82 0 0 1 .766.047.798.798 0 0 1 .38.655c.019.264-.006.53-.008.795-.002.15 0 .3 0 .496.084-.025.166-.059.243-.1.234-.15.454-.319.659-.505a77.007 77.007 0 0 0 2.122-2.228 48.741 48.741 0 0 0 3.285-4.177c.073-.101.145-.204.227-.298.234-.27.536-.342.82-.204.151.072.274.191.35.339.075.147.098.315.067.477a7.898 7.898 0 0 1-.324.954c-.356.86-.743 1.707-1.083 2.572a9.825 9.825 0 0 0-.377 1.324 2.4 2.4 0 0 0-.006.534c.2-.017.392-.09.553-.209a9.52 9.52 0 0 0 1.505-1.163 22.843 22.843 0 0 0 2.954-3.377c.465-.641.908-1.297 1.362-1.946.092-.14.192-.277.299-.408a.658.658 0 0 1 .756-.197.624.624 0 0 1 .308.249.607.607 0 0 1 .092.382 2.08 2.08 0 0 1-.163.636c-.21.488-.447.965-.672 1.447-.034.07-.066.14-.115.247.106 0 .182-.004.258.001.197.001.394.017.588.046.31.052.591.208.796.44.206.234.322.53.33.838.029.488-.068.976-.282 1.417a5.632 5.632 0 0 1-1.912 2.293c-.341.248-.734.419-1.15.5-.87.159-1.545-.365-1.576-1.231 0-.407.063-.813.186-1.201.048-.149.08-.302.097-.456-.057.055-.116.107-.17.164a14.496 14.496 0 0 1-2.176 1.981 9.145 9.145 0 0 1-1.051.645 1.755 1.755 0 0 1-1.043.203 1.157 1.157 0 0 1-.606-.242 1.125 1.125 0 0 1-.373-.527 2.44 2.44 0 0 1-.088-1.257c.041-.296.118-.586.188-.922-.073.072-.122.114-.165.162-.716.795-1.425 1.596-2.149 2.385a8.395 8.395 0 0 1-1.393 1.252 2.734 2.734 0 0 1-.84.415c-.708.193-1.333-.133-1.546-.825a6.879 6.879 0 0 1-.14-.693 1.724 1.724 0 0 0-.168.117c-.586.511-1.168 1.026-1.754 1.536a.844.844 0 0 0-.229.38c-.467 1.31-.923 2.623-1.412 3.924-.371.959-.823 1.886-1.35 2.772a5.774 5.774 0 0 1-.908 1.217 2.296 2.296 0 0 1-1.353.71 1.439 1.439 0 0 1-1.081-.274 1.397 1.397 0 0 1-.54-.96 3.259 3.259 0 0 1 .207-1.485 8.223 8.223 0 0 1 1.155-2.06 32.836 32.836 0 0 1 2.604-3.083c.493-.528.998-1.045 1.492-1.572a.792.792 0 0 0 .167-.265c.192-.533.375-1.07.56-1.605a.143.143 0 0 0-.009-.118c-.074.085-.148.167-.22.253a14.527 14.527 0 0 1-2.676 2.537c-.297.199-.612.37-.94.515a1.152 1.152 0 0 1-.844.05c-.472-.147-.7-.5-.793-.954a3.326 3.326 0 0 1 .024-1.187c.163-.924.417-1.83.757-2.706.303-.831.617-1.66.921-2.491a.966.966 0 0 0 .07-.333.57.57 0 0 1 .19-.411.588.588 0 0 1 .432-.151c.177.017.34.102.454.236a.663.663 0 0 1 .158.479c-.016.095-.04.19-.073.282-.356 1.084-.707 2.17-1.072 3.252a12.373 12.373 0 0 0-.538 2.024c-.032.208-.039.418-.063.69Zm2.554 2.866-.032-.021c-.036.034-.075.065-.107.101-.387.443-.782.88-1.156 1.332a12.245 12.245 0 0 0-1.393 1.951 6.942 6.942 0 0 0-.444 1.02 2.698 2.698 0 0 0-.088.651c-.01.124.077.192.19.15.16-.05.31-.128.445-.228.307-.274.563-.599.758-.959a21.369 21.369 0 0 0 1.637-3.481c.065-.172.127-.344.19-.516Zm16.827-5.322c.237-.01.465-.093.65-.238a4.265 4.265 0 0 0 1.498-1.77c.092-.21.153-.431.18-.659.028-.193-.026-.25-.039-.267-.134-.182-.575-.136-.86-.02-.725.294-1 1.25-1.235 2.07-.083.29-.148.586-.194.884ZM21.334 42.543c-.89.334-1.785.651-2.665 1.008-.597.242-1.182.521-1.752.82a6.99 6.99 0 0 0-.928.634c-.392.296-.902.134-.982-.324a.647.647 0 0 1 0-.187c.152-.988 2.436-1.884 2.436-1.884 1.332-.522 1.998-.783 4.42-1.577a.548.548 0 0 0 .264-.17.566.566 0 0 0 .11-.307c.024-.177.09-.345.194-.491a1.12 1.12 0 0 1 .403-.348.583.583 0 0 1 .777.21c.05.084.077.18.078.278.004.07 0 .14 0 .239.23-.065.443-.123.654-.186a60.095 60.095 0 0 1 4.744-1.222c1.01-.221 2.031-.386 3.06-.494a8.16 8.16 0 0 1 .944-.025.582.582 0 0 1 .399.139c.11.094.18.225.195.368a.544.544 0 0 1-.106.402.562.562 0 0 1-.362.215c-.395.085-.795.15-1.196.2-1.426.186-2.84.456-4.232.809a81.3 81.3 0 0 0-4.509 1.268.48.48 0 0 0-.329.305c-.981 2.358-1.812 4.767-2.561 7.204-.998 3.247-1.983 6.498-2.976 9.748a8.875 8.875 0 0 1-.264.75.623.623 0 0 1-.247.326.641.641 0 0 1-.399.106c-.453-.014-.72-.421-.574-.873.158-.489.32-.975.47-1.466.392-1.277.782-2.554 1.17-3.832.284-.928.911-3.072 1.622-5.306.535-1.68 1.246-3.831 2.142-6.337Z" fill="#fff"/><path d="M39.501 55.873c.038-.173.07-.338.11-.5.268-1.089 1.012-1.785 1.974-2.298.916-.488 1.908-.596 2.93-.57.593.014 1.188.009 1.782-.002.652-.012 1.28-.176 1.914-.303.696-.142 1.39-.289 2.085-.428.115-.022.232-.03.349-.026a.649.649 0 0 1 .446.158.627.627 0 0 1-.335 1.096c-.264.054-.53.093-.795.146-.853.173-1.703.367-2.561.517-.497.083-.999.13-1.502.142-.738.023-1.478-.014-2.215.009a3.415 3.415 0 0 0-2.241.922 1.864 1.864 0 0 0-.622 1.394c-.006.238.012.477.055.712.23 1.254-.021 2.443-.474 3.61-.734 1.892-1.82 3.546-3.415 4.855a4.758 4.758 0 0 1-1.297.802c-.314.139-.66.193-1.002.158-.72-.105-1.184-.574-1.326-1.311a3.375 3.375 0 0 1 .09-1.445c.219-.858.547-1.686.977-2.464a16.104 16.104 0 0 1 2.644-3.668 5.745 5.745 0 0 1 1.879-1.315c.18-.076.37-.13.55-.191Zm.07 1.22c-.14.078-.252.133-.356.198-.498.32-.952.702-1.351 1.136a14.804 14.804 0 0 0-2.006 2.723c-.49.806-.864 1.674-1.114 2.579-.11.329-.14.679-.085 1.021.046.207.113.265.32.22.174-.039.343-.102.5-.187a5.49 5.49 0 0 0 1.206-.932 10.632 10.632 0 0 0 2.833-4.926c.152-.6.17-1.225.054-1.832ZM24.21 50.974c.33-.093.633-.264.881-.499.546-.488 1.097-.972 1.604-1.498A28.981 28.981 0 0 0 29.22 45.9c.09-.123.176-.248.275-.362a.663.663 0 0 1 .835-.183.645.645 0 0 1 .3.339.63.63 0 0 1 0 .448c-.053.15-.117.296-.191.437a11.384 11.384 0 0 0-1.06 3.327c-.02.147-.034.296-.056.48.073-.017.145-.04.215-.069a7.421 7.421 0 0 0 1.435-.937c.135-.117.277-.225.425-.326.276-.183.56-.173.77.013.22.195.258.477.074.772a2.208 2.208 0 0 1-.384.475 7.826 7.826 0 0 1-1.985 1.266c-.14.06-.286.106-.435.137a1.089 1.089 0 0 1-.824-.103 1.065 1.065 0 0 1-.501-.65 2.564 2.564 0 0 1-.045-1.156c.025-.138.034-.278.025-.417-.062.064-.125.128-.186.193a16.707 16.707 0 0 1-2.15 2.01c-.33.262-.705.462-1.108.592-.928.28-1.63-.195-1.779-1.124a4.135 4.135 0 0 1 .053-1.399 12.574 12.574 0 0 1 1.438-3.924c.13-.233.247-.472.37-.708a.577.577 0 0 1 .295-.297.592.592 0 0 1 .423-.022.566.566 0 0 1 .316.256.55.55 0 0 1 .06.4 2.169 2.169 0 0 1-.148.424c-.35.843-.72 1.678-1.048 2.529a7.597 7.597 0 0 0-.477 2.035c-.037.207-.017.42.057.617ZM58.912 41.6a.582.582 0 0 1-.4-.192.56.56 0 0 1-.14-.416.753.753 0 0 1 .267-.536c.265-.238.547-.456.844-.654 1.12-.703 2.343-1.188 3.602-1.59.23-.074.464-.138.7-.192a.61.61 0 0 1 .407.035c.127.058.23.159.29.284a.546.546 0 0 1-.236.735c-.254.15-.523.272-.804.365-1.114.37-2.198.828-3.239 1.366-.31.158-.62.319-.837.608a.506.506 0 0 1-.454.188Z" fill="#fff"/></svg>