<svg width="47" height="60" fill="none" xmlns="http://www.w3.org/2000/svg"><path d="M17.877 34.347c0-3.22 1.806-5.912 4.062-5.912h12.954c5.896 0 10.68-1.76 10.697-11.726.017-9.964-10.174-9.355-10.174-9.355" stroke="#FCE7C7" stroke-width="2" stroke-linecap="round" stroke-linejoin="round"/><path clip-rule="evenodd" d="M35.301 12.546a2.819 2.819 0 0 1-2.819 2.82H3.82A2.82 2.82 0 0 1 1 12.546V3.82A2.82 2.82 0 0 1 3.82 1h28.662a2.82 2.82 0 0 1 2.82 2.82v8.726ZM22.715 54.798c0 2.296-1.933 4.202-4.229 4.202h-.725c-2.295 0-4.175-1.906-4.175-4.202V35.505h9.13v19.293Z" stroke="#FCE7C7" stroke-width="2" stroke-linecap="round" stroke-linejoin="round"/></svg>