<svg width="82" height="49" fill="none" xmlns="http://www.w3.org/2000/svg"><path d="M59.99 44.1H23.465M8.919 42.476l-5.333-1.3C2.724 40.796 1 39.616 1 37.926V29.15c0-.812.517-2.437 2.586-2.437 2.586 0 5.98-.325 7.757-1.137 1.423-.65 6.734-3.304 9.213-4.55 1.13-.65 3.878-1.95 5.818-1.95h14.222c1.562 0 5.463.553 8.566 2.762 3.103 2.21 7.218 5.146 8.889 6.338m-26.99.325h28.282c3.771-.055 12.51.422 17.293 2.762C78.9 32.564 81 33.7 81 35.326v5.85c-.054.975-.679 2.924-2.748 2.924m-.97-9.099h2.91M1.485 32.563h2.586" stroke="#FCE7C7" stroke-width="2"/><path d="M16.192 24.114c.916 1.517 3.555 4.55 6.788 4.55h3.232m9.697-8.774v7.8" stroke="#FCE7C7" stroke-width="2"/><ellipse cx="66.939" cy="41.501" rx="6.465" ry="6.5" stroke="#FCE7C7" stroke-width="2"/><ellipse cx="16.515" cy="41.5" rx="6.5" ry="6.465" transform="rotate(-90 16.515 41.5)" stroke="#FCE7C7" stroke-width="2"/><path d="m65.808 40.363 2.263 2.275M15.384 42.638l2.262-2.275M22.818 20.864l-1.94 6.662M1 1h79.83" stroke="#FCE7C7" stroke-width="2"/></svg>